<svg width="310" height="169" viewBox="0 0 310 169" fill="none" xmlns="http://www.w3.org/2000/svg">
<g clip-path="url(#clip0_8_69)">
<path d="M7.82788 153.149V6.5H301.47V153.149H7.82788Z" fill="#525252"/>
<path d="M5.18026 101.692L22.7206 84.1516L62.9378 124.369L34.3975 152.909L4.38574 149.251L5.18026 101.692Z" fill="#767676"/>
<path d="M274.491 153.146L245.714 124.369L285.931 84.1516L305.458 103.679L304.003 150.015L274.491 153.146Z" fill="#767676"/>
<path d="M305.958 10.4701L285.931 30.4971L261.786 6.35135L305.958 10.4701Z" fill="#767676"/>
<path d="M48.853 4.36462L22.7205 30.4971L6.18018 13.9568L16.3645 5.55511L48.853 4.36462Z" fill="#767676"/>
<path d="M228.793 91.9098L194.852 57.9687L228.793 24.0275L262.734 57.9687L228.793 91.9098Z" fill="#767676"/>
<path d="M281.12 76.6819L262.407 57.9686L281.12 39.2553L299.834 57.9686L281.12 76.6819Z" fill="#A2A2A2"/>
<path d="M262.734 47.3486L250.171 34.7851L262.734 22.2217L275.297 34.7851L262.734 47.3486Z" fill="#A2A2A2"/>
<path d="M262.734 94.3486L250.171 81.7852L262.734 69.2218L275.297 81.7852L262.734 94.3486Z" fill="#A2A2A2"/>
<path d="M197.734 35.4516L171.504 9.2215H223.964L197.734 35.4516Z" fill="#A2A2A2"/>
<path d="M197.734 133.579L171.504 107.349L197.734 81.1187L223.964 107.349L197.734 133.579Z" fill="#A2A2A2"/>
<path d="M46.5276 58.2852L80.4687 24.3441L114.41 58.2852L80.4687 92.2263L46.5276 58.2852Z" fill="#A2A2A2"/>
<path d="M9.42773 58.2852L28.141 39.5719L46.8543 58.2852L28.141 76.9985L9.42773 58.2852Z" fill="#A2A2A2"/>
<path d="M33.9641 35.1017L46.5275 22.5383L59.0909 35.1017L46.5275 47.6651L33.9641 35.1017Z" fill="#A2A2A2"/>
<path d="M33.9641 82.1017L46.5275 69.5383L59.0909 82.1017L46.5275 94.6651L33.9641 82.1017Z" fill="#A2A2A2"/>
<path d="M85.2976 9.53806H137.758L111.528 35.7681L85.2976 9.53806Z" fill="#A2A2A2"/>
<path d="M85.2976 107.665L111.528 81.4353L137.758 107.665L111.528 133.895L85.2976 107.665Z" fill="#A2A2A2"/>
<path d="M5 17.4957C5 11.0967 10.9155 5 18.1192 5C47.0517 5 237.848 5 290.729 5C299.343 5 304.297 9.64378 304.297 17.2462C304.297 47.8384 304.297 126.339 304.297 142.951C304.297 148.991 299.438 154.649 290.979 154.649C238.512 154.649 47.5526 154.649 18.3686 154.649C11.0407 154.649 5 150.125 5 142.702C5 112.541 5 34.5083 5 17.4957Z" stroke="url(#paint0_linear_8_69)" stroke-width="10" stroke-miterlimit="10"/>
<path d="M120.708 58.2852C120.708 39.54 135.903 24.3441 154.649 24.3441C173.394 24.3441 188.59 39.54 188.59 58.2852C188.59 77.0303 173.394 92.2263 154.649 92.2263C135.903 92.2263 120.708 77.0303 120.708 58.2852Z" stroke="white" stroke-width="7.5" stroke-miterlimit="10"/>
<path d="M120.708 58.2852C120.708 39.54 135.903 24.3441 154.649 24.3441C173.394 24.3441 188.59 39.54 188.59 58.2852C188.59 77.0303 173.394 92.2263 154.649 92.2263C135.903 92.2263 120.708 77.0303 120.708 58.2852Z" fill="#D2D2D2"/>
<path d="M103.417 111.398C103.417 110.006 103.822 108.905 104.632 108.096C105.441 107.286 106.542 106.881 107.935 106.881H123.964C124.19 107.237 124.385 107.707 124.546 108.29C124.741 108.873 124.838 109.488 124.838 110.136C124.838 111.366 124.563 112.24 124.012 112.759C123.494 113.277 122.798 113.536 121.923 113.536H111.675V118.053H122.603C122.83 118.409 123.024 118.879 123.186 119.462C123.381 120.012 123.478 120.611 123.478 121.259C123.478 122.489 123.219 123.364 122.701 123.882C122.183 124.4 121.486 124.659 120.612 124.659H111.675V129.759H124.158C124.385 130.115 124.579 130.585 124.741 131.168C124.935 131.751 125.032 132.366 125.032 133.013C125.032 134.244 124.757 135.134 124.206 135.685C123.688 136.203 122.992 136.462 122.118 136.462H107.935C106.542 136.462 105.441 136.057 104.632 135.248C103.822 134.438 103.417 133.337 103.417 131.945V111.398ZM138.482 106.055C140.328 106.055 141.963 106.298 143.388 106.784C144.813 107.237 146.027 107.869 147.031 108.678C148.035 109.488 148.795 110.443 149.314 111.544C149.832 112.645 150.091 113.827 150.091 115.09C150.091 118.49 148.164 121.728 144.311 124.805L137.948 129.905H149.605C149.799 130.261 149.977 130.714 150.139 131.265C150.334 131.815 150.431 132.414 150.431 133.062C150.431 134.228 150.172 135.07 149.654 135.588C149.136 136.073 148.455 136.316 147.614 136.316H130.759C130.046 135.831 129.48 135.215 129.059 134.471C128.67 133.693 128.476 132.787 128.476 131.751C128.476 130.65 128.703 129.727 129.156 128.982C129.609 128.205 130.111 127.589 130.662 127.136L137.365 121.404C138.207 120.692 138.903 120.061 139.453 119.51C140.004 118.927 140.441 118.409 140.765 117.956C141.121 117.502 141.364 117.082 141.493 116.693C141.655 116.304 141.736 115.932 141.736 115.576C141.736 114.669 141.331 113.957 140.522 113.439C139.745 112.92 138.773 112.661 137.608 112.661C136.312 112.661 135.147 112.872 134.11 113.293C133.106 113.681 132.265 114.102 131.585 114.556C131.034 114.167 130.581 113.681 130.224 113.099C129.868 112.516 129.69 111.836 129.69 111.058C129.69 109.375 130.484 108.128 132.07 107.318C133.657 106.476 135.794 106.055 138.482 106.055ZM155.31 111.398C155.31 110.006 155.715 108.905 156.525 108.096C157.334 107.286 158.435 106.881 159.828 106.881H175.857C176.083 107.237 176.278 107.707 176.44 108.29C176.634 108.873 176.731 109.488 176.731 110.136C176.731 111.366 176.456 112.24 175.905 112.759C175.387 113.277 174.691 113.536 173.817 113.536H163.568V118.053H174.497C174.723 118.409 174.918 118.879 175.08 119.462C175.274 120.012 175.371 120.611 175.371 121.259C175.371 122.489 175.112 123.364 174.594 123.882C174.076 124.4 173.38 124.659 172.505 124.659H163.568V129.759H176.051C176.278 130.115 176.472 130.585 176.634 131.168C176.828 131.751 176.925 132.366 176.925 133.013C176.925 134.244 176.65 135.134 176.1 135.685C175.581 136.203 174.885 136.462 174.011 136.462H159.828C158.435 136.462 157.334 136.057 156.525 135.248C155.715 134.438 155.31 133.337 155.31 131.945V111.398ZM181.921 111.398C181.921 110.006 182.326 108.905 183.135 108.096C183.945 107.286 185.046 106.881 186.438 106.881H202.467C202.694 107.237 202.888 107.707 203.05 108.29C203.245 108.873 203.342 109.488 203.342 110.136C203.342 111.366 203.066 112.24 202.516 112.759C201.998 113.277 201.302 113.536 200.427 113.536H190.179V118.053H201.107C201.334 118.409 201.528 118.879 201.69 119.462C201.885 120.012 201.982 120.611 201.982 121.259C201.982 122.489 201.723 123.364 201.205 123.882C200.686 124.4 199.99 124.659 199.116 124.659H190.179V129.759H202.662C202.888 130.115 203.083 130.585 203.245 131.168C203.439 131.751 203.536 132.366 203.536 133.013C203.536 134.244 203.261 135.134 202.71 135.685C202.192 136.203 201.496 136.462 200.622 136.462H186.438C185.046 136.462 183.945 136.057 183.135 135.248C182.326 134.438 181.921 133.337 181.921 131.945V111.398Z" fill="white"/>
<path d="M123.964 106.881L127.037 104.925L125.963 103.238H123.964V106.881ZM124.546 108.29L121.036 109.265L121.061 109.354L121.09 109.442L124.546 108.29ZM124.012 112.759L121.515 110.106L121.475 110.144L121.436 110.183L124.012 112.759ZM111.675 113.536V109.893H108.032V113.536H111.675ZM111.675 118.053H108.032V121.696H111.675V118.053ZM122.603 118.053L125.677 116.097L124.603 114.41H122.603V118.053ZM123.186 119.462L119.676 120.437L119.71 120.557L119.751 120.674L123.186 119.462ZM111.675 124.659V121.016H108.032V124.659H111.675ZM111.675 129.759H108.032V133.402H111.675V129.759ZM124.158 129.759L127.231 127.803L126.158 126.116H124.158V129.759ZM124.741 131.168L121.231 132.143L121.255 132.232L121.285 132.32L124.741 131.168ZM124.206 135.685L121.63 133.109L121.63 133.109L124.206 135.685ZM104.632 135.248L107.208 132.672L107.208 132.672L104.632 135.248ZM107.06 111.398C107.06 111.053 107.11 110.866 107.14 110.786C107.165 110.718 107.185 110.694 107.208 110.672L102.056 105.52C100.42 107.155 99.7743 109.263 99.7743 111.398H107.06ZM107.208 110.672C107.23 110.649 107.254 110.629 107.322 110.604C107.402 110.574 107.589 110.524 107.935 110.524V103.238C105.799 103.238 103.691 103.884 102.056 105.52L107.208 110.672ZM107.935 110.524H123.964V103.238H107.935V110.524ZM120.89 108.837C120.87 108.805 120.881 108.816 120.913 108.893C120.944 108.969 120.988 109.09 121.036 109.265L128.056 107.315C127.836 106.522 127.52 105.685 127.037 104.925L120.89 108.837ZM121.09 109.442C121.154 109.634 121.195 109.858 121.195 110.136H128.481C128.481 109.118 128.327 108.112 128.002 107.138L121.09 109.442ZM121.195 110.136C121.195 110.31 121.185 110.435 121.174 110.519C121.163 110.604 121.152 110.633 121.157 110.62C121.161 110.606 121.183 110.541 121.24 110.445C121.298 110.346 121.388 110.226 121.515 110.106L126.509 115.411C128.139 113.877 128.481 111.763 128.481 110.136H121.195ZM121.436 110.183C121.552 110.066 121.696 109.977 121.831 109.927C121.954 109.881 122.002 109.893 121.923 109.893V117.179C123.564 117.179 125.257 116.665 126.588 115.334L121.436 110.183ZM121.923 109.893H111.675V117.179H121.923V109.893ZM108.032 113.536V118.053H115.318V113.536H108.032ZM111.675 121.696H122.603V114.41H111.675V121.696ZM119.53 120.009C119.509 119.976 119.521 119.988 119.553 120.065C119.584 120.141 119.628 120.261 119.676 120.437L126.696 118.487C126.476 117.694 126.16 116.857 125.677 116.097L119.53 120.009ZM119.751 120.674C119.794 120.795 119.835 120.979 119.835 121.259H127.121C127.121 120.243 126.968 119.229 126.622 118.249L119.751 120.674ZM119.835 121.259C119.835 121.441 119.825 121.576 119.814 121.67C119.802 121.765 119.79 121.805 119.791 121.802C119.792 121.798 119.862 121.569 120.125 121.306L125.277 126.458C126.817 124.917 127.121 122.837 127.121 121.259H119.835ZM120.125 121.306C120.241 121.19 120.384 121.101 120.519 121.05C120.643 121.004 120.691 121.016 120.612 121.016V128.302C122.252 128.302 123.946 127.789 125.277 126.458L120.125 121.306ZM120.612 121.016H111.675V128.302H120.612V121.016ZM108.032 124.659V129.759H115.318V124.659H108.032ZM111.675 133.402H124.158V126.116H111.675V133.402ZM121.084 131.715C121.064 131.682 121.076 131.694 121.107 131.771C121.139 131.847 121.182 131.967 121.231 132.143L128.251 130.193C128.03 129.4 127.715 128.563 127.231 127.803L121.084 131.715ZM121.285 132.32C121.349 132.511 121.389 132.736 121.389 133.013H128.675C128.675 131.996 128.521 130.99 128.197 130.016L121.285 132.32ZM121.389 133.013C121.389 133.187 121.379 133.315 121.368 133.404C121.356 133.492 121.345 133.53 121.345 133.528C121.346 133.526 121.362 133.476 121.407 133.397C121.453 133.316 121.525 133.214 121.63 133.109L126.782 138.261C128.322 136.721 128.675 134.667 128.675 133.013H121.389ZM121.63 133.109C121.747 132.993 121.89 132.904 122.025 132.854C122.149 132.808 122.196 132.819 122.118 132.819V140.105C123.758 140.105 125.451 139.592 126.782 138.261L121.63 133.109ZM122.118 132.819H107.935V140.105H122.118V132.819ZM107.935 132.819C107.589 132.819 107.402 132.769 107.322 132.739C107.254 132.714 107.23 132.694 107.208 132.672L102.056 137.824C103.691 139.459 105.799 140.105 107.935 140.105V132.819ZM107.208 132.672C107.185 132.65 107.165 132.625 107.14 132.558C107.11 132.477 107.06 132.29 107.06 131.945H99.7743C99.7743 134.081 100.42 136.188 102.056 137.824L107.208 132.672ZM107.06 131.945V111.398H99.7743V131.945H107.06ZM143.388 106.784L142.212 110.232L142.248 110.244L142.283 110.256L143.388 106.784ZM147.031 108.678L144.744 111.514L144.744 111.514L147.031 108.678ZM149.314 111.544L152.61 109.993L152.61 109.993L149.314 111.544ZM144.311 124.805L142.038 121.958L142.032 121.962L144.311 124.805ZM137.948 129.905L135.669 127.062L127.578 133.548H137.948V129.905ZM149.605 129.905L152.803 128.16L151.768 126.262H149.605V129.905ZM150.139 131.265L146.644 132.293L146.672 132.386L146.704 132.477L150.139 131.265ZM149.654 135.588L152.145 138.245L152.188 138.205L152.23 138.164L149.654 135.588ZM130.759 136.316L128.707 139.326L129.635 139.959H130.759V136.316ZM129.059 134.471L125.8 136.1L125.842 136.183L125.887 136.263L129.059 134.471ZM129.156 128.982L132.268 130.876L132.285 130.847L132.303 130.817L129.156 128.982ZM130.662 127.136L132.978 129.948L133.004 129.927L133.029 129.905L130.662 127.136ZM137.365 121.404L135.012 118.624L135.004 118.63L134.997 118.636L137.365 121.404ZM139.453 119.51L142.029 122.086L142.066 122.049L142.102 122.011L139.453 119.51ZM140.765 117.956L137.9 115.705L137.849 115.771L137.8 115.838L140.765 117.956ZM141.493 116.693L138.131 115.292L138.079 115.415L138.037 115.541L141.493 116.693ZM140.522 113.439L138.501 116.47L138.53 116.489L138.558 116.507L140.522 113.439ZM134.11 113.293L135.425 116.69L135.454 116.679L135.481 116.668L134.11 113.293ZM131.585 114.556L129.484 117.532L131.526 118.973L133.605 117.587L131.585 114.556ZM132.07 107.318L133.726 110.563L133.752 110.55L133.778 110.536L132.07 107.318ZM138.482 109.698C140.015 109.698 141.24 109.901 142.212 110.232L144.563 103.336C142.685 102.696 140.64 102.413 138.482 102.413V109.698ZM142.283 110.256C143.345 110.594 144.143 111.029 144.744 111.514L149.318 105.843C147.911 104.708 146.28 103.881 144.492 103.313L142.283 110.256ZM144.744 111.514C145.345 111.999 145.748 112.523 146.017 113.095L152.61 109.993C151.843 108.363 150.724 106.977 149.318 105.843L144.744 111.514ZM146.017 113.095C146.298 113.693 146.448 114.343 146.448 115.09H153.734C153.734 113.312 153.365 111.598 152.61 109.993L146.017 113.095ZM146.448 115.09C146.448 116.951 145.43 119.249 142.038 121.958L146.583 127.652C150.898 124.207 153.734 120.029 153.734 115.09H146.448ZM142.032 121.962L135.669 127.062L140.226 132.747L146.589 127.647L142.032 121.962ZM137.948 133.548H149.605V126.262H137.948V133.548ZM146.407 131.649C146.438 131.706 146.528 131.897 146.644 132.293L153.634 130.237C153.427 129.531 153.161 128.816 152.803 128.16L146.407 131.649ZM146.704 132.477C146.747 132.598 146.788 132.782 146.788 133.062H154.074C154.074 132.046 153.921 131.032 153.575 130.052L146.704 132.477ZM146.788 133.062C146.788 133.22 146.779 133.334 146.769 133.409C146.759 133.485 146.75 133.51 146.755 133.496C146.759 133.482 146.779 133.421 146.831 133.331C146.883 133.239 146.963 133.126 147.078 133.012L152.23 138.164C153.741 136.653 154.074 134.643 154.074 133.062H146.788ZM147.162 132.93C147.274 132.825 147.407 132.747 147.53 132.703C147.642 132.663 147.685 132.673 147.614 132.673V139.959C149.198 139.959 150.829 139.479 152.145 138.245L147.162 132.93ZM147.614 132.673H130.759V139.959H147.614V132.673ZM132.811 133.306C132.556 133.133 132.374 132.933 132.23 132.678L125.887 136.263C126.585 137.498 127.536 138.528 128.707 139.326L132.811 133.306ZM132.317 132.841C132.226 132.659 132.119 132.329 132.119 131.751H124.833C124.833 133.244 125.115 134.728 125.8 136.1L132.317 132.841ZM132.119 131.751C132.119 131.144 132.242 130.918 132.268 130.876L126.044 127.088C125.163 128.535 124.833 130.155 124.833 131.751H132.119ZM132.303 130.817C132.593 130.319 132.834 130.067 132.978 129.948L128.346 124.324C127.389 125.112 126.625 126.09 126.009 127.146L132.303 130.817ZM133.029 129.905L139.732 124.173L134.997 118.636L128.294 124.367L133.029 129.905ZM139.718 124.185C140.608 123.432 141.385 122.731 142.029 122.086L136.877 116.934C136.421 117.391 135.805 117.952 135.012 118.624L139.718 124.185ZM142.102 122.011C142.721 121.355 143.277 120.706 143.729 120.073L137.8 115.838C137.605 116.112 137.286 116.499 136.805 117.009L142.102 122.011ZM143.629 120.207C144.147 119.547 144.645 118.757 144.949 117.845L138.037 115.541C138.063 115.465 138.08 115.443 138.059 115.48C138.038 115.515 137.99 115.59 137.9 115.705L143.629 120.207ZM144.856 118.094C145.17 117.341 145.379 116.492 145.379 115.576H138.093C138.093 115.372 138.141 115.268 138.131 115.292L144.856 118.094ZM145.379 115.576C145.379 113.34 144.266 111.51 142.486 110.37L138.558 116.507C138.551 116.502 138.402 116.401 138.265 116.161C138.124 115.912 138.093 115.684 138.093 115.576H145.379ZM142.543 110.407C141.034 109.402 139.314 109.018 137.608 109.018V116.304C138.233 116.304 138.456 116.439 138.501 116.47L142.543 110.407ZM137.608 109.018C135.916 109.018 134.274 109.294 132.739 109.918L135.481 116.668C136.019 116.45 136.709 116.304 137.608 116.304V109.018ZM132.795 109.896C131.617 110.352 130.522 110.886 129.564 111.525L133.605 117.587C134.007 117.319 134.596 117.011 135.425 116.69L132.795 109.896ZM133.685 111.58C133.546 111.481 133.434 111.364 133.333 111.199L127.116 114.998C127.728 115.999 128.522 116.853 129.484 117.532L133.685 111.58ZM133.333 111.199C133.346 111.22 133.349 111.234 133.348 111.228C133.346 111.22 133.333 111.168 133.333 111.058H126.047C126.047 112.412 126.364 113.768 127.116 114.998L133.333 111.199ZM133.333 111.058C133.333 110.924 133.349 110.854 133.355 110.83C133.361 110.808 133.363 110.809 133.359 110.816C133.341 110.844 133.393 110.733 133.726 110.563L130.415 104.073C129.161 104.713 128.023 105.63 127.212 106.905C126.393 108.191 126.047 109.623 126.047 111.058H133.333ZM133.778 110.536C134.642 110.078 136.118 109.698 138.482 109.698V102.413C135.471 102.413 132.672 102.875 130.363 104.1L133.778 110.536ZM175.857 106.881L178.93 104.925L177.857 103.238H175.857V106.881ZM176.44 108.29L172.93 109.265L172.954 109.354L172.984 109.442L176.44 108.29ZM175.905 112.759L173.409 110.106L173.368 110.144L173.329 110.183L175.905 112.759ZM163.568 113.536V109.893H159.925V113.536H163.568ZM163.568 118.053H159.925V121.696H163.568V118.053ZM174.497 118.053L177.57 116.097L176.496 114.41H174.497V118.053ZM175.08 119.462L171.57 120.437L171.603 120.557L171.644 120.674L175.08 119.462ZM163.568 124.659V121.016H159.925V124.659H163.568ZM163.568 129.759H159.925V133.402H163.568V129.759ZM176.051 129.759L179.124 127.803L178.051 126.116H176.051V129.759ZM176.634 131.168L173.124 132.143L173.149 132.232L173.178 132.32L176.634 131.168ZM176.1 135.685L173.524 133.109L173.524 133.109L176.1 135.685ZM156.525 135.248L159.101 132.672L159.101 132.672L156.525 135.248ZM158.953 111.398C158.953 111.053 159.004 110.866 159.033 110.786C159.058 110.718 159.079 110.694 159.101 110.672L153.949 105.52C152.313 107.155 151.667 109.263 151.667 111.398H158.953ZM159.101 110.672C159.123 110.649 159.147 110.629 159.215 110.604C159.295 110.574 159.482 110.524 159.828 110.524V103.238C157.692 103.238 155.584 103.884 153.949 105.52L159.101 110.672ZM159.828 110.524H175.857V103.238H159.828V110.524ZM172.783 108.837C172.763 108.805 172.774 108.816 172.806 108.893C172.838 108.969 172.881 109.09 172.93 109.265L179.95 107.315C179.729 106.522 179.414 105.685 178.93 104.925L172.783 108.837ZM172.984 109.442C173.048 109.634 173.088 109.858 173.088 110.136H180.374C180.374 109.118 180.22 108.112 179.896 107.138L172.984 109.442ZM173.088 110.136C173.088 110.31 173.078 110.435 173.067 110.519C173.056 110.604 173.046 110.633 173.05 110.62C173.054 110.606 173.076 110.541 173.133 110.445C173.192 110.346 173.281 110.226 173.409 110.106L178.402 115.411C180.032 113.877 180.374 111.763 180.374 110.136H173.088ZM173.329 110.183C173.445 110.066 173.589 109.977 173.724 109.927C173.847 109.881 173.895 109.893 173.817 109.893V117.179C175.457 117.179 177.15 116.665 178.481 115.334L173.329 110.183ZM173.817 109.893H163.568V117.179H173.817V109.893ZM159.925 113.536V118.053H167.211V113.536H159.925ZM163.568 121.696H174.497V114.41H163.568V121.696ZM171.423 120.009C171.403 119.976 171.414 119.988 171.446 120.065C171.478 120.141 171.521 120.261 171.57 120.437L178.59 118.487C178.369 117.694 178.054 116.857 177.57 116.097L171.423 120.009ZM171.644 120.674C171.687 120.795 171.728 120.979 171.728 121.259H179.014C179.014 120.243 178.861 119.229 178.515 118.249L171.644 120.674ZM171.728 121.259C171.728 121.441 171.718 121.576 171.707 121.67C171.695 121.765 171.683 121.805 171.684 121.802C171.685 121.798 171.755 121.569 172.018 121.306L177.17 126.458C178.71 124.917 179.014 122.837 179.014 121.259H171.728ZM172.018 121.306C172.134 121.19 172.277 121.101 172.413 121.05C172.536 121.004 172.584 121.016 172.505 121.016V128.302C174.146 128.302 175.839 127.789 177.17 126.458L172.018 121.306ZM172.505 121.016H163.568V128.302H172.505V121.016ZM159.925 124.659V129.759H167.211V124.659H159.925ZM163.568 133.402H176.051V126.116H163.568V133.402ZM172.978 131.715C172.957 131.682 172.969 131.694 173.001 131.771C173.032 131.847 173.075 131.967 173.124 132.143L180.144 130.193C179.924 129.4 179.608 128.563 179.124 127.803L172.978 131.715ZM173.178 132.32C173.242 132.511 173.282 132.736 173.282 133.013H180.568C180.568 131.996 180.415 130.99 180.09 130.016L173.178 132.32ZM173.282 133.013C173.282 133.187 173.273 133.315 173.261 133.404C173.25 133.492 173.238 133.53 173.238 133.528C173.239 133.526 173.255 133.476 173.3 133.397C173.346 133.316 173.419 133.214 173.524 133.109L178.676 138.261C180.215 136.721 180.568 134.667 180.568 133.013H173.282ZM173.524 133.109C173.64 132.993 173.783 132.904 173.918 132.854C174.042 132.808 174.09 132.819 174.011 132.819V140.105C175.651 140.105 177.345 139.592 178.676 138.261L173.524 133.109ZM174.011 132.819H159.828V140.105H174.011V132.819ZM159.828 132.819C159.482 132.819 159.295 132.769 159.215 132.739C159.147 132.714 159.123 132.694 159.101 132.672L153.949 137.824C155.584 139.459 157.692 140.105 159.828 140.105V132.819ZM159.101 132.672C159.079 132.65 159.058 132.625 159.033 132.558C159.004 132.477 158.953 132.29 158.953 131.945H151.667C151.667 134.081 152.313 136.188 153.949 137.824L159.101 132.672ZM158.953 131.945V111.398H151.667V131.945H158.953ZM202.467 106.881L205.541 104.925L204.467 103.238H202.467V106.881ZM203.05 108.29L199.54 109.265L199.565 109.354L199.594 109.442L203.05 108.29ZM202.516 112.759L200.019 110.106L199.979 110.144L199.94 110.183L202.516 112.759ZM190.179 113.536V109.893H186.536V113.536H190.179ZM190.179 118.053H186.536V121.696H190.179V118.053ZM201.107 118.053L204.181 116.097L203.107 114.41H201.107V118.053ZM201.69 119.462L198.18 120.437L198.214 120.557L198.255 120.674L201.69 119.462ZM190.179 124.659V121.016H186.536V124.659H190.179ZM190.179 129.759H186.536V133.402H190.179V129.759ZM202.662 129.759L205.735 127.803L204.662 126.116H202.662V129.759ZM203.245 131.168L199.735 132.143L199.759 132.232L199.789 132.32L203.245 131.168ZM202.71 135.685L200.134 133.109L200.134 133.109L202.71 135.685ZM183.135 135.248L185.711 132.672L185.711 132.672L183.135 135.248ZM185.564 111.398C185.564 111.053 185.614 110.866 185.644 110.786C185.669 110.718 185.689 110.694 185.711 110.672L180.559 105.52C178.924 107.155 178.278 109.263 178.278 111.398H185.564ZM185.711 110.672C185.734 110.649 185.758 110.629 185.825 110.604C185.906 110.574 186.093 110.524 186.438 110.524V103.238C184.302 103.238 182.195 103.884 180.559 105.52L185.711 110.672ZM186.438 110.524H202.467V103.238H186.438V110.524ZM199.394 108.837C199.373 108.805 199.385 108.816 199.417 108.893C199.448 108.969 199.492 109.09 199.54 109.265L206.56 107.315C206.34 106.522 206.024 105.685 205.541 104.925L199.394 108.837ZM199.594 109.442C199.658 109.634 199.699 109.858 199.699 110.136H206.985C206.985 109.118 206.831 108.112 206.506 107.138L199.594 109.442ZM199.699 110.136C199.699 110.31 199.689 110.435 199.678 110.519C199.667 110.604 199.656 110.633 199.66 110.62C199.665 110.606 199.687 110.541 199.744 110.445C199.802 110.346 199.892 110.226 200.019 110.106L205.013 115.411C206.643 113.877 206.985 111.763 206.985 110.136H199.699ZM199.94 110.183C200.056 110.066 200.2 109.977 200.335 109.927C200.458 109.881 200.506 109.893 200.427 109.893V117.179C202.068 117.179 203.761 116.665 205.092 115.334L199.94 110.183ZM200.427 109.893H190.179V117.179H200.427V109.893ZM186.536 113.536V118.053H193.821V113.536H186.536ZM190.179 121.696H201.107V114.41H190.179V121.696ZM198.034 120.009C198.013 119.976 198.025 119.988 198.057 120.065C198.088 120.141 198.132 120.261 198.18 120.437L205.2 118.487C204.98 117.694 204.664 116.857 204.181 116.097L198.034 120.009ZM198.255 120.674C198.298 120.795 198.339 120.979 198.339 121.259H205.625C205.625 120.243 205.471 119.229 205.126 118.249L198.255 120.674ZM198.339 121.259C198.339 121.441 198.329 121.576 198.317 121.67C198.306 121.765 198.294 121.805 198.295 121.802C198.296 121.798 198.366 121.569 198.629 121.306L203.78 126.458C205.321 124.917 205.625 122.837 205.625 121.259H198.339ZM198.629 121.306C198.745 121.19 198.888 121.101 199.023 121.05C199.147 121.004 199.195 121.016 199.116 121.016V128.302C200.756 128.302 202.45 127.789 203.78 126.458L198.629 121.306ZM199.116 121.016H190.179V128.302H199.116V121.016ZM186.536 124.659V129.759H193.821V124.659H186.536ZM190.179 133.402H202.662V126.116H190.179V133.402ZM199.588 131.715C199.568 131.682 199.579 131.694 199.611 131.771C199.643 131.847 199.686 131.967 199.735 132.143L206.755 130.193C206.534 129.4 206.219 128.563 205.735 127.803L199.588 131.715ZM199.789 132.32C199.852 132.511 199.893 132.736 199.893 133.013H207.179C207.179 131.996 207.025 130.99 206.701 130.016L199.789 132.32ZM199.893 133.013C199.893 133.187 199.883 133.315 199.872 133.404C199.86 133.492 199.848 133.53 199.849 133.528C199.85 133.526 199.866 133.476 199.911 133.397C199.957 133.316 200.029 133.214 200.134 133.109L205.286 138.261C206.826 136.721 207.179 134.667 207.179 133.013H199.893ZM200.134 133.109C200.25 132.993 200.394 132.904 200.529 132.854C200.652 132.808 200.7 132.819 200.622 132.819V140.105C202.262 140.105 203.955 139.592 205.286 138.261L200.134 133.109ZM200.622 132.819H186.438V140.105H200.622V132.819ZM186.438 132.819C186.093 132.819 185.906 132.769 185.825 132.739C185.758 132.714 185.734 132.694 185.711 132.672L180.559 137.824C182.195 139.459 184.302 140.105 186.438 140.105V132.819ZM185.711 132.672C185.689 132.65 185.669 132.625 185.644 132.558C185.614 132.477 185.564 132.29 185.564 131.945H178.278C178.278 134.081 178.924 136.188 180.559 137.824L185.711 132.672ZM185.564 131.945V111.398H178.278V131.945H185.564Z" fill="black"/>
<path d="M103.177 111.473C103.177 110.083 103.581 108.984 104.389 108.176C105.197 107.368 106.295 106.964 107.685 106.964H123.682C123.908 107.32 124.102 107.788 124.263 108.37C124.457 108.952 124.554 109.566 124.554 110.212C124.554 111.44 124.28 112.313 123.73 112.83C123.213 113.347 122.518 113.605 121.646 113.605H111.418V118.114H122.324C122.551 118.469 122.745 118.938 122.906 119.519C123.1 120.069 123.197 120.667 123.197 121.313C123.197 122.541 122.938 123.414 122.421 123.931C121.904 124.448 121.209 124.706 120.337 124.706H111.418V129.796H123.876C124.102 130.152 124.296 130.62 124.457 131.202C124.651 131.784 124.748 132.398 124.748 133.044C124.748 134.272 124.473 135.161 123.924 135.71C123.407 136.227 122.712 136.486 121.84 136.486H107.685C106.295 136.486 105.197 136.082 104.389 135.274C103.581 134.466 103.177 133.367 103.177 131.978V111.473ZM138.171 106.14C140.013 106.14 141.645 106.383 143.067 106.867C144.489 107.32 145.701 107.95 146.702 108.758C147.704 109.566 148.464 110.519 148.981 111.618C149.498 112.717 149.756 113.896 149.756 115.157C149.756 118.55 147.833 121.782 143.988 124.852L137.638 129.942H149.272C149.465 130.297 149.643 130.749 149.805 131.299C149.999 131.848 150.096 132.446 150.096 133.092C150.096 134.256 149.837 135.096 149.32 135.613C148.803 136.098 148.124 136.34 147.284 136.34H130.463C129.752 135.856 129.187 135.242 128.767 134.498C128.379 133.723 128.185 132.818 128.185 131.784C128.185 130.685 128.411 129.764 128.864 129.021C129.316 128.245 129.817 127.631 130.366 127.178L137.056 121.458C137.896 120.747 138.591 120.117 139.14 119.568C139.69 118.986 140.126 118.469 140.449 118.017C140.805 117.564 141.047 117.144 141.176 116.756C141.338 116.369 141.419 115.997 141.419 115.641C141.419 114.737 141.015 114.026 140.207 113.509C139.431 112.991 138.462 112.733 137.298 112.733C136.006 112.733 134.842 112.943 133.808 113.363C132.806 113.751 131.966 114.171 131.287 114.623C130.738 114.236 130.286 113.751 129.93 113.169C129.575 112.588 129.397 111.909 129.397 111.133C129.397 109.453 130.189 108.209 131.772 107.401C133.356 106.56 135.489 106.14 138.171 106.14ZM154.966 111.473C154.966 110.083 155.369 108.984 156.177 108.176C156.985 107.368 158.084 106.964 159.474 106.964H175.47C175.697 107.32 175.891 107.788 176.052 108.37C176.246 108.952 176.343 109.566 176.343 110.212C176.343 111.44 176.068 112.313 175.519 112.83C175.002 113.347 174.307 113.605 173.435 113.605H163.206V118.114H174.113C174.339 118.469 174.533 118.938 174.695 119.519C174.889 120.069 174.986 120.667 174.986 121.313C174.986 122.541 174.727 123.414 174.21 123.931C173.693 124.448 172.998 124.706 172.126 124.706H163.206V129.796H175.664C175.891 130.152 176.084 130.62 176.246 131.202C176.44 131.784 176.537 132.398 176.537 133.044C176.537 134.272 176.262 135.161 175.713 135.71C175.196 136.227 174.501 136.486 173.628 136.486H159.474C158.084 136.486 156.985 136.082 156.177 135.274C155.369 134.466 154.966 133.367 154.966 131.978V111.473ZM181.523 111.473C181.523 110.083 181.927 108.984 182.735 108.176C183.542 107.368 184.641 106.964 186.031 106.964H202.028C202.254 107.32 202.448 107.788 202.609 108.37C202.803 108.952 202.9 109.566 202.9 110.212C202.9 111.44 202.625 112.313 202.076 112.83C201.559 113.347 200.864 113.605 199.992 113.605H189.763V118.114H200.67C200.896 118.469 201.09 118.938 201.252 119.519C201.446 120.069 201.543 120.667 201.543 121.313C201.543 122.541 201.284 123.414 200.767 123.931C200.25 124.448 199.555 124.706 198.683 124.706H189.763V129.796H202.221C202.448 130.152 202.642 130.62 202.803 131.202C202.997 131.784 203.094 132.398 203.094 133.044C203.094 134.272 202.819 135.161 202.27 135.71C201.753 136.227 201.058 136.486 200.186 136.486H186.031C184.641 136.486 183.542 136.082 182.735 135.274C181.927 134.466 181.523 133.367 181.523 131.978V111.473Z" fill="white"/>
<path d="M178.439 62.0681C178.439 76.9448 168.026 84.3832 155.648 88.6973C155 88.917 154.296 88.9067 153.655 88.6678C141.247 84.3833 130.834 76.9448 130.834 62.0681V41.2406C130.834 40.4515 131.147 39.6947 131.705 39.1367C132.263 38.5787 133.02 38.2652 133.809 38.2652C139.76 38.2652 147.198 34.6948 152.375 30.1723C153.005 29.6337 153.807 29.3378 154.636 29.3378C155.465 29.3378 156.267 29.6337 156.898 30.1723C162.104 34.7246 169.513 38.2652 175.464 38.2652C176.253 38.2652 177.01 38.5787 177.568 39.1367C178.126 39.6947 178.439 40.4515 178.439 41.2406V62.0681Z" fill="#767676" stroke="white" stroke-width="5" stroke-miterlimit="10" stroke-linecap="round" stroke-linejoin="round"/>
<path d="M150.839 57.0478C150.132 55.0178 150.135 52.8077 150.847 50.7794C151.559 48.7511 152.938 47.0246 154.759 45.8821C156.58 44.7399 158.735 44.2491 160.871 44.4906C163.007 44.7321 164.998 45.6913 166.518 47.2113C168.038 48.7313 168.997 50.7223 169.239 52.8584C169.48 54.9945 168.989 57.1491 167.847 58.9703C166.705 60.7912 164.978 62.1704 162.95 62.8825C160.921 63.5946 158.711 63.5976 156.681 62.8903L154.637 64.9352H151.715V69.3171H147.333V73.6989H141.491C140.615 73.6989 140.03 73.1147 140.03 72.2383V67.8564L150.839 57.0478Z" fill="white"/>
<path d="M158.912 51.6113C158.912 49.8406 160.347 48.4051 162.118 48.4051C163.889 48.4051 165.324 49.8406 165.324 51.6113C165.324 53.3821 163.889 54.8176 162.118 54.8176C160.347 54.8176 158.912 53.3821 158.912 51.6113Z" fill="#767676"/>
</g>
<defs>
<linearGradient id="paint0_linear_8_69" x1="154.649" y1="5" x2="154.649" y2="154.649" gradientUnits="userSpaceOnUse">
<stop stop-color="#767676"/>
<stop offset="1" stop-color="#A2A2A2"/>
</linearGradient>
<clipPath id="clip0_8_69">
<rect width="309.297" height="168.706" fill="white"/>
</clipPath>
</defs>
</svg>
