<svg width="310" height="169" viewBox="0 0 310 169" fill="none" xmlns="http://www.w3.org/2000/svg">
<g clip-path="url(#clip0_11_122)">
<path d="M7.82788 153.149V6.5H301.47V153.149H7.82788Z" fill="#1937A4"/>
<path d="M5.18026 101.692L22.7206 84.1516L62.9378 124.369L34.3975 152.909L4.38574 149.251L5.18026 101.692Z" fill="#214ADC"/>
<path d="M274.491 153.146L245.714 124.369L285.931 84.1516L305.458 103.679L304.003 150.015L274.491 153.146Z" fill="#214ADC"/>
<path d="M305.958 10.47L285.931 30.497L261.786 6.35132L305.958 10.47Z" fill="#214ADC"/>
<path d="M48.853 4.36462L22.7205 30.4971L6.18018 13.9568L16.3645 5.55511L48.853 4.36462Z" fill="#214ADC"/>
<path d="M228.793 91.9098L194.852 57.9687L228.793 24.0276L262.734 57.9687L228.793 91.9098Z" fill="#214ADC"/>
<path d="M281.12 76.6819L262.407 57.9687L281.12 39.2554L299.834 57.9687L281.12 76.6819Z" fill="#4971FF"/>
<path d="M262.734 47.3486L250.171 34.7852L262.734 22.2218L275.297 34.7852L262.734 47.3486Z" fill="#4971FF"/>
<path d="M262.734 94.3486L250.171 81.7852L262.734 69.2218L275.297 81.7852L262.734 94.3486Z" fill="#4971FF"/>
<path d="M197.734 35.4516L171.504 9.22156H223.964L197.734 35.4516Z" fill="#4971FF"/>
<path d="M197.734 133.579L171.504 107.349L197.734 81.1188L223.964 107.349L197.734 133.579Z" fill="#4971FF"/>
<path d="M46.5276 58.2851L80.4687 24.344L114.41 58.2851L80.4687 92.2262L46.5276 58.2851Z" fill="#4971FF"/>
<path d="M9.42773 58.2852L28.141 39.5719L46.8543 58.2852L28.141 76.9985L9.42773 58.2852Z" fill="#4971FF"/>
<path d="M33.9641 35.1017L46.5275 22.5383L59.0909 35.1017L46.5275 47.6651L33.9641 35.1017Z" fill="#4971FF"/>
<path d="M33.9641 82.1017L46.5275 69.5383L59.0909 82.1017L46.5275 94.6651L33.9641 82.1017Z" fill="#4971FF"/>
<path d="M85.2976 9.53809H137.758L111.528 35.7682L85.2976 9.53809Z" fill="#4971FF"/>
<path d="M85.2976 107.665L111.528 81.4353L137.758 107.665L111.528 133.895L85.2976 107.665Z" fill="#4971FF"/>
<path d="M5 17.4957C5 11.0967 10.9155 5 18.1192 5C47.0517 5 237.848 5 290.729 5C299.343 5 304.297 9.64378 304.297 17.2462C304.297 47.8384 304.297 126.339 304.297 142.951C304.297 148.991 299.438 154.649 290.979 154.649C238.512 154.649 47.5526 154.649 18.3686 154.649C11.0407 154.649 5 150.125 5 142.702C5 112.541 5 34.5083 5 17.4957Z" stroke="url(#paint0_linear_11_122)" stroke-width="10" stroke-miterlimit="10"/>
<path d="M120.708 58.2851C120.708 39.54 135.903 24.344 154.649 24.344C173.394 24.344 188.59 39.5399 188.59 58.2851C188.59 77.0303 173.394 92.2262 154.649 92.2262C135.903 92.2262 120.708 77.0303 120.708 58.2851Z" stroke="white" stroke-width="7.5" stroke-miterlimit="10"/>
<path d="M120.708 58.2851C120.708 39.54 135.903 24.344 154.649 24.344C173.394 24.344 188.59 39.5399 188.59 58.2851C188.59 77.0303 173.394 92.2262 154.649 92.2262C135.903 92.2262 120.708 77.0303 120.708 58.2851Z" fill="#6E8EFF"/>
<path d="M83.5147 121.55C83.5147 119.024 83.9033 116.79 84.6805 114.847C85.49 112.904 86.5748 111.285 87.9349 109.99C89.3273 108.662 90.9464 107.658 92.7922 106.978C94.6703 106.298 96.6942 105.958 98.8638 105.958C101.033 105.958 103.041 106.298 104.887 106.978C106.765 107.658 108.4 108.662 109.793 109.99C111.185 111.285 112.27 112.904 113.047 114.847C113.857 116.79 114.261 119.024 114.261 121.55C114.261 124.076 113.873 126.326 113.096 128.302C112.318 130.245 111.234 131.88 109.841 133.208C108.481 134.503 106.862 135.491 104.984 136.171C103.106 136.851 101.066 137.191 98.8638 137.191C96.6618 137.191 94.6217 136.851 92.7436 136.171C90.8654 135.458 89.2463 134.438 87.8863 133.11C86.5263 131.783 85.4577 130.148 84.6805 128.205C83.9033 126.262 83.5147 124.044 83.5147 121.55ZM92.2578 121.55C92.2578 124.497 92.8569 126.699 94.055 128.156C95.2532 129.613 96.8561 130.342 98.8638 130.342C100.904 130.342 102.523 129.613 103.721 128.156C104.919 126.699 105.518 124.497 105.518 121.55C105.518 118.636 104.919 116.45 103.721 114.993C102.555 113.536 100.952 112.807 98.9123 112.807C96.9046 112.807 95.2856 113.536 94.055 114.993C92.8569 116.418 92.2578 118.603 92.2578 121.55ZM118.59 104.695C118.914 104.598 119.432 104.501 120.145 104.404C120.857 104.274 121.586 104.21 122.33 104.21C123.043 104.21 123.674 104.258 124.225 104.355C124.808 104.453 125.293 104.647 125.682 104.938C126.071 105.23 126.362 105.634 126.556 106.153C126.751 106.638 126.848 107.286 126.848 108.095V112.856C127.657 112.532 128.418 112.305 129.131 112.176C129.875 112.046 130.685 111.981 131.559 111.981C133.114 111.981 134.587 112.257 135.979 112.807C137.372 113.358 138.602 114.167 139.671 115.236C140.74 116.272 141.582 117.567 142.197 119.122C142.812 120.676 143.12 122.473 143.12 124.513C143.12 126.618 142.796 128.464 142.148 130.05C141.533 131.605 140.659 132.9 139.525 133.936C138.392 134.972 136.999 135.766 135.348 136.316C133.729 136.834 131.932 137.093 129.956 137.093C127.819 137.093 126.006 136.834 124.516 136.316C123.027 135.831 121.764 135.215 120.728 134.471C119.303 133.467 118.59 132.171 118.59 130.585V104.695ZM129.956 130.585C131.446 130.585 132.596 130.083 133.405 129.079C134.247 128.043 134.668 126.521 134.668 124.513C134.668 122.473 134.247 120.951 133.405 119.947C132.563 118.943 131.43 118.441 130.005 118.441C129.357 118.441 128.791 118.506 128.305 118.636C127.852 118.765 127.35 118.96 126.799 119.219V129.808C127.155 130.034 127.576 130.228 128.062 130.39C128.58 130.52 129.212 130.585 129.956 130.585ZM147.192 106.153C147.192 104.922 147.597 103.886 148.406 103.044C149.248 102.202 150.349 101.781 151.709 101.781C153.069 101.781 154.154 102.202 154.964 103.044C155.806 103.886 156.227 104.922 156.227 106.153C156.227 107.383 155.806 108.419 154.964 109.261C154.154 110.103 153.069 110.524 151.709 110.524C150.349 110.524 149.248 110.103 148.406 109.261C147.597 108.419 147.192 107.383 147.192 106.153ZM145.541 139.619C146.253 139.166 146.771 138.534 147.095 137.725C147.419 136.948 147.581 136.073 147.581 135.102V113.05C147.937 112.985 148.455 112.904 149.135 112.807C149.847 112.678 150.56 112.613 151.272 112.613C151.985 112.613 152.616 112.661 153.167 112.758C153.749 112.856 154.235 113.05 154.624 113.341C155.012 113.633 155.304 114.038 155.498 114.556C155.725 115.041 155.838 115.689 155.838 116.499V135.879C155.838 137.239 155.676 138.47 155.352 139.571C155.029 140.672 154.559 141.611 153.944 142.388C153.361 143.197 152.632 143.813 151.758 144.234C150.916 144.687 149.961 144.914 148.892 144.914C147.467 144.914 146.35 144.477 145.541 143.602C144.731 142.76 144.31 141.692 144.278 140.396L145.541 139.619ZM173.573 137.093C171.662 137.093 169.881 136.834 168.23 136.316C166.61 135.766 165.186 134.956 163.955 133.888C162.757 132.819 161.802 131.475 161.089 129.856C160.409 128.237 160.069 126.343 160.069 124.173C160.069 122.036 160.409 120.206 161.089 118.684C161.802 117.13 162.725 115.867 163.858 114.896C164.991 113.892 166.287 113.163 167.744 112.71C169.201 112.224 170.691 111.981 172.212 111.981C173.929 111.981 175.483 112.24 176.875 112.758C178.3 113.277 179.515 113.989 180.518 114.896C181.555 115.802 182.348 116.887 182.898 118.15C183.481 119.413 183.773 120.789 183.773 122.279C183.773 123.38 183.465 124.222 182.85 124.805C182.235 125.387 181.377 125.76 180.276 125.922L168.278 127.719C168.634 128.787 169.363 129.597 170.464 130.148C171.565 130.666 172.828 130.925 174.253 130.925C175.58 130.925 176.827 130.763 177.993 130.439C179.191 130.083 180.162 129.678 180.907 129.225C181.425 129.548 181.862 130.002 182.218 130.585C182.575 131.168 182.753 131.783 182.753 132.43C182.753 133.888 182.073 134.972 180.713 135.685C179.676 136.235 178.511 136.608 177.215 136.802C175.92 136.996 174.706 137.093 173.573 137.093ZM172.212 118.004C171.435 118.004 170.755 118.134 170.172 118.393C169.622 118.652 169.169 118.992 168.812 119.413C168.456 119.802 168.181 120.255 167.987 120.773C167.825 121.259 167.728 121.761 167.695 122.279L176.001 120.919C175.904 120.271 175.548 119.623 174.933 118.976C174.317 118.328 173.411 118.004 172.212 118.004ZM201.056 118.49C200.247 118.49 199.47 118.62 198.725 118.879C198.012 119.138 197.381 119.526 196.831 120.044C196.312 120.53 195.891 121.145 195.568 121.89C195.244 122.635 195.082 123.509 195.082 124.513C195.082 126.521 195.649 128.027 196.782 129.03C197.948 130.034 199.356 130.536 201.008 130.536C201.979 130.536 202.821 130.423 203.534 130.196C204.246 129.969 204.877 129.727 205.428 129.468C206.076 129.921 206.561 130.423 206.885 130.973C207.209 131.491 207.371 132.123 207.371 132.868C207.371 134.195 206.739 135.231 205.476 135.976C204.214 136.689 202.465 137.045 200.231 137.045C198.191 137.045 196.345 136.753 194.693 136.171C193.042 135.555 191.617 134.713 190.419 133.645C189.253 132.544 188.346 131.232 187.699 129.71C187.051 128.188 186.727 126.505 186.727 124.659C186.727 122.522 187.067 120.66 187.747 119.073C188.46 117.454 189.415 116.126 190.613 115.09C191.811 114.054 193.188 113.277 194.742 112.758C196.329 112.24 197.996 111.981 199.745 111.981C202.076 111.981 203.874 112.402 205.136 113.244C206.399 114.086 207.031 115.171 207.031 116.499C207.031 117.114 206.885 117.697 206.594 118.247C206.302 118.765 205.962 119.219 205.574 119.607C205.023 119.348 204.359 119.105 203.582 118.879C202.805 118.62 201.963 118.49 201.056 118.49ZM219.769 128.205C219.769 129.047 220.028 129.646 220.547 130.002C221.097 130.358 221.858 130.536 222.83 130.536C223.315 130.536 223.817 130.504 224.335 130.439C224.853 130.342 225.307 130.228 225.695 130.099C225.987 130.455 226.23 130.86 226.424 131.313C226.651 131.734 226.764 132.252 226.764 132.868C226.764 134.098 226.294 135.102 225.355 135.879C224.449 136.656 222.83 137.045 220.498 137.045C217.648 137.045 215.446 136.397 213.892 135.102C212.37 133.807 211.609 131.702 211.609 128.788V107.998C211.965 107.901 212.467 107.804 213.115 107.707C213.795 107.577 214.507 107.513 215.252 107.513C216.677 107.513 217.778 107.772 218.555 108.29C219.365 108.776 219.769 109.828 219.769 111.447V114.556H226.132C226.327 114.912 226.505 115.365 226.667 115.916C226.861 116.434 226.958 117.017 226.958 117.664C226.958 118.798 226.699 119.623 226.181 120.142C225.695 120.627 225.031 120.87 224.19 120.87H219.769V128.205Z" fill="white"/>
<path d="M84.6805 114.847L81.3178 113.446L81.3078 113.47L81.2981 113.494L84.6805 114.847ZM87.9349 109.99L90.4473 112.628L90.4488 112.626L87.9349 109.99ZM92.7922 106.978L91.5519 103.553L91.5423 103.556L91.5328 103.56L92.7922 106.978ZM104.887 106.978L103.627 110.397L103.637 110.4L103.647 110.404L104.887 106.978ZM109.793 109.99L107.279 112.626L107.295 112.642L107.311 112.657L109.793 109.99ZM113.047 114.847L109.665 116.2L109.674 116.224L109.684 116.248L113.047 114.847ZM113.096 128.302L116.478 129.655L116.482 129.645L116.486 129.636L113.096 128.302ZM109.841 133.208L112.354 135.846L112.355 135.844L109.841 133.208ZM104.984 136.171L103.744 132.745L104.984 136.171ZM92.7436 136.171L91.4516 139.577L91.4774 139.587L91.5034 139.596L92.7436 136.171ZM87.8863 133.11L85.3416 135.717L85.3416 135.717L87.8863 133.11ZM84.6805 128.205L88.0629 126.852L88.0629 126.852L84.6805 128.205ZM94.055 128.156L96.869 125.842L96.869 125.842L94.055 128.156ZM103.721 128.156L100.907 125.842L100.907 125.842L103.721 128.156ZM103.721 114.993L100.876 117.269L100.892 117.288L100.907 117.306L103.721 114.993ZM94.055 114.993L91.2717 112.642L91.2669 112.648L94.055 114.993ZM87.1577 121.55C87.1577 119.394 87.4895 117.634 88.0629 116.2L81.2981 113.494C80.3172 115.946 79.8718 118.654 79.8718 121.55H87.1577ZM88.0432 116.248C88.6818 114.716 89.4953 113.534 90.4473 112.628L85.4225 107.352C83.6544 109.036 82.2983 111.093 81.3178 113.446L88.0432 116.248ZM90.4488 112.626C91.4727 111.65 92.6622 110.909 94.0515 110.397L91.5328 103.56C89.2305 104.408 87.1819 105.674 85.421 107.353L90.4488 112.626ZM94.0324 110.404C95.48 109.88 97.0806 109.601 98.8638 109.601V102.315C96.3077 102.315 93.8606 102.717 91.5519 103.553L94.0324 110.404ZM98.8638 109.601C100.648 109.601 102.224 109.88 103.627 110.397L106.146 103.56C103.858 102.717 101.419 102.315 98.8638 102.315V109.601ZM103.647 110.404C105.069 110.919 106.266 111.66 107.279 112.626L112.307 107.353C110.535 105.664 108.461 104.398 106.127 103.553L103.647 110.404ZM107.311 112.657C108.272 113.551 109.067 114.706 109.665 116.2L116.429 113.494C115.473 111.103 114.098 109.019 112.274 107.322L107.311 112.657ZM109.684 116.248C110.276 117.668 110.618 119.411 110.618 121.55H117.904C117.904 118.638 117.437 115.912 116.41 113.446L109.684 116.248ZM110.618 121.55C110.618 123.704 110.287 125.49 109.706 126.968L116.486 129.636C117.458 127.163 117.904 124.448 117.904 121.55H110.618ZM109.713 126.949C109.113 128.45 108.309 129.635 107.327 130.571L112.355 135.844C114.158 134.125 115.524 132.04 116.478 129.655L109.713 126.949ZM107.329 130.57C106.357 131.495 105.179 132.226 103.744 132.745L106.224 139.596C108.546 138.755 110.606 137.51 112.354 135.846L107.329 130.57ZM103.744 132.745C102.302 133.267 100.686 133.548 98.8638 133.548V140.834C101.445 140.834 103.91 140.434 106.224 139.596L103.744 132.745ZM98.8638 133.548C97.0415 133.548 95.4256 133.267 93.9838 132.745L91.5034 139.596C93.8178 140.434 96.282 140.834 98.8638 140.834V133.548ZM94.0356 132.764C92.5984 132.219 91.4127 131.462 90.431 130.504L85.3416 135.717C87.08 137.414 89.1325 138.697 91.4516 139.577L94.0356 132.764ZM90.431 130.504C89.4699 129.565 88.6705 128.371 88.0629 126.852L81.2981 129.558C82.2448 131.924 83.5826 134 85.3416 135.717L90.431 130.504ZM88.0629 126.852C87.4874 125.413 87.1577 123.667 87.1577 121.55H79.8718C79.8718 124.42 80.3192 127.11 81.2981 129.558L88.0629 126.852ZM88.6149 121.55C88.6149 124.892 89.2783 128.083 91.2411 130.47L96.869 125.842C96.4355 125.315 95.9008 124.102 95.9008 121.55H88.6149ZM91.2411 130.47C93.1806 132.829 95.8467 133.985 98.8638 133.985V126.699C97.8655 126.699 97.3257 126.398 96.869 125.842L91.2411 130.47ZM98.8638 133.985C101.892 133.985 104.583 132.844 106.535 130.47L100.907 125.842C100.463 126.383 99.9154 126.699 98.8638 126.699V133.985ZM106.535 130.47C108.498 128.083 109.161 124.892 109.161 121.55H101.875C101.875 124.102 101.341 125.315 100.907 125.842L106.535 130.47ZM109.161 121.55C109.161 118.229 108.493 115.061 106.535 112.679L100.907 117.306C101.345 117.839 101.875 119.043 101.875 121.55H109.161ZM106.566 112.717C104.638 110.308 101.941 109.164 98.9123 109.164V116.45C99.9636 116.45 100.472 116.764 100.876 117.269L106.566 112.717ZM98.9123 109.164C95.8964 109.164 93.235 110.317 91.2717 112.642L96.8384 117.343C97.3361 116.754 97.9129 116.45 98.9123 116.45V109.164ZM91.2669 112.648C89.2745 115.017 88.6149 118.217 88.6149 121.55H95.9008C95.9008 118.99 96.4393 117.818 96.8432 117.337L91.2669 112.648ZM118.59 104.695L117.544 101.206L114.947 101.985V104.695H118.59ZM120.145 104.404L120.637 108.014L120.717 108.003L120.796 107.988L120.145 104.404ZM124.225 104.355L123.592 107.943L123.609 107.946L123.626 107.949L124.225 104.355ZM125.682 104.938L123.496 107.853L123.496 107.853L125.682 104.938ZM126.556 106.153L123.145 107.432L123.159 107.469L123.174 107.506L126.556 106.153ZM126.848 112.856H123.205V118.236L128.201 116.238L126.848 112.856ZM129.131 112.176L128.506 108.587L128.493 108.589L128.479 108.591L129.131 112.176ZM135.979 112.807L137.319 109.419L137.319 109.419L135.979 112.807ZM139.671 115.236L137.095 117.812L137.115 117.831L137.135 117.851L139.671 115.236ZM142.197 119.122L138.81 120.462L138.81 120.462L142.197 119.122ZM142.148 130.05L138.775 128.674L138.768 128.692L138.761 128.71L142.148 130.05ZM139.525 133.936L137.067 131.248L137.067 131.248L139.525 133.936ZM135.348 136.316L136.458 139.786L136.479 139.779L136.5 139.772L135.348 136.316ZM124.516 136.316L125.713 132.876L125.679 132.864L125.646 132.853L124.516 136.316ZM120.728 134.471L122.854 131.512L122.84 131.502L122.826 131.492L120.728 134.471ZM133.405 129.079L130.578 126.782L130.569 126.792L133.405 129.079ZM133.405 119.947L136.196 117.606L136.196 117.606L133.405 119.947ZM128.305 118.636L127.366 115.116L127.335 115.124L127.304 115.133L128.305 118.636ZM126.799 119.219L125.248 115.922L123.156 116.907V119.219H126.799ZM126.799 129.808H123.156V131.807L124.843 132.881L126.799 129.808ZM128.062 130.39L126.91 133.846L127.043 133.891L127.179 133.925L128.062 130.39ZM119.637 108.185C119.627 108.188 119.699 108.167 119.893 108.13C120.076 108.096 120.321 108.057 120.637 108.014L119.653 100.794C118.913 100.895 118.157 101.022 117.544 101.206L119.637 108.185ZM120.796 107.988C121.288 107.899 121.798 107.853 122.33 107.853V100.567C121.373 100.567 120.427 100.65 119.493 100.82L120.796 107.988ZM122.33 107.853C122.885 107.853 123.298 107.891 123.592 107.943L124.858 100.768C124.051 100.625 123.201 100.567 122.33 100.567V107.853ZM123.626 107.949C123.692 107.96 123.702 107.968 123.673 107.956C123.642 107.944 123.577 107.913 123.496 107.853L127.868 102.024C126.922 101.314 125.859 100.935 124.824 100.762L123.626 107.949ZM123.496 107.853C123.387 107.771 123.3 107.678 123.236 107.589C123.174 107.503 123.149 107.442 123.145 107.432L129.967 104.873C129.564 103.798 128.887 102.788 127.868 102.024L123.496 107.853ZM123.174 107.506C123.144 107.431 123.155 107.431 123.172 107.543C123.189 107.652 123.205 107.831 123.205 108.095H130.491C130.491 107.049 130.373 105.885 129.939 104.8L123.174 107.506ZM123.205 108.095V112.856H130.491V108.095H123.205ZM128.201 116.238C128.828 115.987 129.353 115.838 129.782 115.76L128.479 108.591C127.484 108.772 126.487 109.077 125.495 109.473L128.201 116.238ZM129.755 115.765C130.265 115.676 130.863 115.624 131.559 115.624V108.338C130.507 108.338 129.486 108.416 128.506 108.587L129.755 115.765ZM131.559 115.624C132.673 115.624 133.69 115.819 134.64 116.195L137.319 109.419C135.484 108.694 133.554 108.338 131.559 108.338V115.624ZM134.64 116.195C135.565 116.56 136.375 117.092 137.095 117.812L142.247 112.66C140.829 111.242 139.179 110.155 137.319 109.419L134.64 116.195ZM137.135 117.851C137.789 118.486 138.361 119.329 138.81 120.462L145.584 117.781C144.802 115.805 143.69 114.058 142.207 112.62L137.135 117.851ZM138.81 120.462C139.223 121.507 139.477 122.834 139.477 124.513H146.763C146.763 122.112 146.401 119.845 145.584 117.781L138.81 120.462ZM139.477 124.513C139.477 126.25 139.209 127.611 138.775 128.674L145.521 131.427C146.383 129.316 146.763 126.985 146.763 124.513H139.477ZM138.761 128.71C138.331 129.796 137.757 130.617 137.067 131.248L141.983 136.625C143.56 135.183 144.735 133.413 145.535 131.391L138.761 128.71ZM137.067 131.248C136.358 131.896 135.428 132.45 134.196 132.86L136.5 139.772C138.571 139.082 140.426 138.049 141.983 136.625L137.067 131.248ZM134.238 132.847C133.03 133.233 131.615 133.45 129.956 133.45V140.736C132.249 140.736 134.428 140.436 136.458 139.786L134.238 132.847ZM129.956 133.45C128.092 133.45 126.708 133.222 125.713 132.876L123.319 139.757C125.303 140.447 127.547 140.736 129.956 140.736V133.45ZM125.646 132.853C124.434 132.458 123.526 131.995 122.854 131.512L118.601 137.429C120.002 138.435 121.619 139.203 123.387 139.78L125.646 132.853ZM122.826 131.492C122.258 131.093 122.233 130.857 122.233 130.585H114.947C114.947 133.486 116.347 135.841 118.629 137.449L122.826 131.492ZM122.233 130.585V104.695H114.947V130.585H122.233ZM129.956 134.228C132.356 134.228 134.628 133.366 136.241 131.366L130.569 126.792C130.54 126.829 130.521 126.844 130.514 126.849C130.508 126.854 130.498 126.861 130.478 126.87C130.441 126.886 130.292 126.942 129.956 126.942V134.228ZM136.232 131.376C137.81 129.434 138.311 126.953 138.311 124.513H131.025C131.025 126.088 130.684 126.651 130.578 126.782L136.232 131.376ZM138.311 124.513C138.311 122.07 137.822 119.545 136.196 117.606L130.614 122.288C130.672 122.357 131.025 122.876 131.025 124.513H138.311ZM136.196 117.606C134.596 115.699 132.4 114.799 130.005 114.799V122.084C130.285 122.084 130.411 122.132 130.448 122.149C130.478 122.162 130.529 122.188 130.614 122.288L136.196 117.606ZM130.005 114.799C129.126 114.799 128.231 114.885 127.366 115.116L129.244 122.156C129.35 122.127 129.588 122.084 130.005 122.084V114.799ZM127.304 115.133C126.617 115.329 125.928 115.602 125.248 115.922L128.35 122.515C128.771 122.317 129.086 122.201 129.306 122.139L127.304 115.133ZM123.156 119.219V129.808H130.442V119.219H123.156ZM124.843 132.881C125.497 133.297 126.199 133.61 126.91 133.846L129.214 126.934C128.953 126.847 128.813 126.771 128.755 126.734L124.843 132.881ZM127.179 133.925C128.074 134.148 129.021 134.228 129.956 134.228V126.942C129.402 126.942 129.086 126.891 128.946 126.856L127.179 133.925ZM148.406 103.044L145.831 100.468L145.805 100.493L145.781 100.519L148.406 103.044ZM154.964 103.044L152.338 105.569L152.363 105.595L152.388 105.62L154.964 103.044ZM154.964 109.261L152.388 106.685L152.363 106.711L152.338 106.736L154.964 109.261ZM148.406 109.261L145.781 111.786L145.805 111.812L145.831 111.837L148.406 109.261ZM145.541 139.619L147.45 142.722L147.473 142.707L147.497 142.693L145.541 139.619ZM147.095 137.725L143.732 136.324L143.722 136.348L143.713 136.372L147.095 137.725ZM147.581 113.05L146.929 109.466L143.938 110.01V113.05H147.581ZM149.135 112.807L149.65 116.413L149.719 116.404L149.787 116.391L149.135 112.807ZM153.167 112.758L152.534 116.346L152.551 116.349L152.568 116.352L153.167 112.758ZM154.624 113.341L156.81 110.427L156.81 110.427L154.624 113.341ZM155.498 114.556L152.087 115.835L152.137 115.968L152.197 116.096L155.498 114.556ZM155.352 139.571L158.847 140.599L158.847 140.599L155.352 139.571ZM153.944 142.388L151.088 140.127L151.036 140.192L150.987 140.259L153.944 142.388ZM151.758 144.234L150.178 140.951L150.103 140.987L150.031 141.026L151.758 144.234ZM145.541 143.602L148.214 141.127L148.19 141.102L148.167 141.077L145.541 143.602ZM144.278 140.396L142.369 137.294L140.584 138.392L140.636 140.487L144.278 140.396ZM150.835 106.153C150.835 105.808 150.913 105.693 151.032 105.569L145.781 100.519C144.281 102.079 143.549 104.036 143.549 106.153H150.835ZM150.982 105.62C151.042 105.56 151.166 105.424 151.709 105.424V98.1381C149.533 98.1381 147.454 98.844 145.831 100.468L150.982 105.62ZM151.709 105.424C152.013 105.424 152.168 105.471 152.225 105.493C152.271 105.511 152.299 105.529 152.338 105.569L157.59 100.519C155.98 98.8444 153.883 98.1381 151.709 98.1381V105.424ZM152.388 105.62C152.521 105.753 152.584 105.852 152.584 106.153H159.87C159.87 103.992 159.09 102.018 157.54 100.468L152.388 105.62ZM152.584 106.153C152.584 106.453 152.521 106.552 152.388 106.685L157.54 111.837C159.09 110.287 159.87 108.313 159.87 106.153H152.584ZM152.338 106.736C152.299 106.777 152.271 106.794 152.225 106.812C152.168 106.835 152.013 106.881 151.709 106.881V114.167C153.883 114.167 155.98 113.461 157.59 111.786L152.338 106.736ZM151.709 106.881C151.166 106.881 151.042 106.745 150.982 106.685L145.831 111.837C147.454 113.461 149.533 114.167 151.709 114.167V106.881ZM151.032 106.736C150.913 106.612 150.835 106.497 150.835 106.153H143.549C143.549 108.269 144.281 110.227 145.781 111.786L151.032 106.736ZM147.497 142.693C148.875 141.815 149.88 140.572 150.477 139.078L143.713 136.372C143.68 136.454 143.654 136.486 143.647 136.495C143.641 136.502 143.627 136.519 143.585 136.546L147.497 142.693ZM150.458 139.126C150.993 137.842 151.224 136.481 151.224 135.102H143.938C143.938 135.666 143.845 136.054 143.732 136.324L150.458 139.126ZM151.224 135.102V113.05H143.938V135.102H151.224ZM148.232 116.634C148.52 116.582 148.983 116.509 149.65 116.413L148.62 109.201C147.927 109.3 147.354 109.388 146.929 109.466L148.232 116.634ZM149.787 116.391C150.288 116.3 150.782 116.256 151.272 116.256V108.97C150.338 108.97 149.407 109.055 148.483 109.223L149.787 116.391ZM151.272 116.256C151.827 116.256 152.24 116.294 152.534 116.346L153.8 109.171C152.993 109.029 152.142 108.97 151.272 108.97V116.256ZM152.568 116.352C152.634 116.363 152.644 116.371 152.615 116.359C152.584 116.347 152.518 116.316 152.438 116.256L156.81 110.427C155.863 109.717 154.801 109.338 153.766 109.165L152.568 116.352ZM152.438 116.256C152.329 116.174 152.241 116.081 152.177 115.992C152.115 115.906 152.091 115.845 152.087 115.835L158.909 113.277C158.506 112.201 157.829 111.191 156.81 110.427L152.438 116.256ZM152.197 116.096C152.148 115.992 152.151 115.957 152.165 116.034C152.178 116.109 152.195 116.258 152.195 116.499H159.481C159.481 115.404 159.336 114.166 158.799 113.015L152.197 116.096ZM152.195 116.499V135.879H159.481V116.499H152.195ZM152.195 135.879C152.195 136.954 152.067 137.831 151.857 138.543L158.847 140.599C159.285 139.109 159.481 137.525 159.481 135.879H152.195ZM151.857 138.543C151.645 139.265 151.371 139.769 151.088 140.127L156.8 144.649C157.747 143.453 158.412 142.078 158.847 140.599L151.857 138.543ZM150.987 140.259C150.749 140.59 150.488 140.802 150.178 140.951L153.338 147.516C154.776 146.824 155.972 145.805 156.9 144.516L150.987 140.259ZM150.031 141.026C149.78 141.161 149.43 141.271 148.892 141.271V148.557C150.492 148.557 152.052 148.213 153.485 147.441L150.031 141.026ZM148.892 141.271C148.551 141.271 148.377 141.218 148.313 141.193C148.263 141.174 148.242 141.158 148.214 141.127L142.868 146.077C144.501 147.841 146.668 148.557 148.892 148.557V141.271ZM148.167 141.077C148.059 140.965 147.932 140.798 147.92 140.305L140.636 140.487C140.688 142.585 141.404 144.556 142.915 146.127L148.167 141.077ZM146.187 143.499L147.45 142.722L143.631 136.517L142.369 137.294L146.187 143.499ZM168.23 136.316L167.057 139.765L167.098 139.779L167.139 139.792L168.23 136.316ZM163.955 133.888L161.53 136.606L161.548 136.622L161.566 136.638L163.955 133.888ZM161.089 129.856L157.731 131.267L157.742 131.295L157.755 131.323L161.089 129.856ZM161.089 118.684L157.778 117.167L157.77 117.182L157.763 117.198L161.089 118.684ZM163.858 114.896L166.229 117.662L166.251 117.642L166.273 117.623L163.858 114.896ZM167.744 112.71L168.826 116.188L168.861 116.178L168.896 116.166L167.744 112.71ZM176.875 112.758L175.605 116.173L175.618 116.177L175.631 116.182L176.875 112.758ZM180.518 114.896L178.077 117.599L178.098 117.618L178.12 117.637L180.518 114.896ZM182.898 118.15L179.559 119.606L179.575 119.641L179.591 119.677L182.898 118.15ZM182.85 124.805L180.344 122.16L180.344 122.16L182.85 124.805ZM180.276 125.922L179.746 122.317L179.736 122.319L180.276 125.922ZM168.278 127.719L167.738 124.116L163.451 124.758L164.822 128.871L168.278 127.719ZM170.464 130.148L168.835 133.406L168.873 133.425L168.913 133.444L170.464 130.148ZM177.993 130.439L178.968 133.949L178.999 133.94L179.031 133.931L177.993 130.439ZM180.907 129.225L182.838 126.135L180.932 124.944L179.013 126.113L180.907 129.225ZM182.218 130.585L185.327 128.685L185.327 128.685L182.218 130.585ZM180.713 135.685L179.022 132.458L179.013 132.463L179.004 132.468L180.713 135.685ZM177.215 136.802L176.675 133.199L176.675 133.199L177.215 136.802ZM170.172 118.393L168.693 115.064L168.657 115.08L168.621 115.097L170.172 118.393ZM168.812 119.413L171.498 121.875L171.547 121.821L171.593 121.766L168.812 119.413ZM167.987 120.773L164.576 119.494L164.552 119.557L164.531 119.621L167.987 120.773ZM167.695 122.279L164.059 122.052L163.774 126.612L168.284 125.874L167.695 122.279ZM176.001 120.919L176.59 124.514L180.137 123.933L179.604 120.378L176.001 120.919ZM174.933 118.976L177.574 116.467L177.574 116.467L174.933 118.976ZM173.573 133.45C171.994 133.45 170.584 133.237 169.32 132.84L167.139 139.792C169.178 140.432 171.33 140.736 173.573 140.736V133.45ZM169.402 132.867C168.207 132.461 167.201 131.881 166.344 131.137L161.566 136.638C163.171 138.031 165.013 139.071 167.057 139.765L169.402 132.867ZM166.38 131.169C165.609 130.482 164.948 129.58 164.424 128.389L157.755 131.323C158.656 133.371 159.905 135.157 161.53 136.606L166.38 131.169ZM164.448 128.445C163.994 127.365 163.712 125.969 163.712 124.173H156.426C156.426 126.716 156.824 129.109 157.731 131.267L164.448 128.445ZM163.712 124.173C163.712 122.409 163.994 121.113 164.415 120.17L157.763 117.198C156.824 119.3 156.426 121.663 156.426 124.173H163.712ZM164.401 120.202C164.926 119.058 165.55 118.243 166.229 117.662L161.487 112.13C159.899 113.491 158.678 115.203 157.778 117.167L164.401 120.202ZM166.273 117.623C167.017 116.964 167.857 116.49 168.826 116.188L166.662 109.231C164.716 109.837 162.965 110.82 161.443 112.169L166.273 117.623ZM168.896 116.166C169.985 115.803 171.086 115.624 172.212 115.624V108.338C170.295 108.338 168.417 108.646 166.592 109.254L168.896 116.166ZM172.212 115.624C173.561 115.624 174.677 115.827 175.605 116.173L178.146 109.344C176.289 108.653 174.296 108.338 172.212 108.338V115.624ZM175.631 116.182C176.667 116.559 177.461 117.043 178.077 117.599L182.96 112.192C181.568 110.935 179.934 109.994 178.12 109.335L175.631 116.182ZM178.12 117.637C178.751 118.19 179.223 118.835 179.559 119.606L186.238 116.694C185.473 114.939 184.358 113.415 182.917 112.154L178.12 117.637ZM179.591 119.677C179.937 120.428 180.13 121.278 180.13 122.279H187.416C187.416 120.3 187.025 118.398 186.206 116.623L179.591 119.677ZM180.13 122.279C180.13 122.497 180.099 122.545 180.12 122.486C180.132 122.454 180.155 122.402 180.196 122.338C180.238 122.274 180.288 122.213 180.344 122.16L185.355 127.449C186.897 125.988 187.416 124.065 187.416 122.279H180.13ZM180.344 122.16C180.421 122.088 180.335 122.231 179.746 122.318L180.806 129.526C182.418 129.289 184.049 128.687 185.355 127.449L180.344 122.16ZM179.736 122.319L167.738 124.116L168.818 131.322L180.815 129.524L179.736 122.319ZM164.822 128.871C165.514 130.946 166.958 132.467 168.835 133.406L172.093 126.889C171.898 126.791 171.822 126.715 171.799 126.69C171.782 126.671 171.759 126.643 171.734 126.567L164.822 128.871ZM168.913 133.444C170.575 134.226 172.382 134.568 174.253 134.568V127.282C173.273 127.282 172.555 127.105 172.015 126.851L168.913 133.444ZM174.253 134.568C175.878 134.568 177.455 134.369 178.968 133.949L177.018 126.929C176.199 127.156 175.282 127.282 174.253 127.282V134.568ZM179.031 133.931C180.411 133.52 181.701 133.006 182.801 132.336L179.013 126.113C178.624 126.35 177.97 126.645 176.955 126.947L179.031 133.931ZM178.976 132.314C178.977 132.314 178.978 132.315 178.981 132.318C178.985 132.32 178.991 132.326 179.001 132.336C179.02 132.356 179.059 132.401 179.11 132.484L185.327 128.685C184.711 127.677 183.89 126.793 182.838 126.135L178.976 132.314ZM179.11 132.484C179.121 132.502 179.125 132.511 179.125 132.512C179.125 132.512 179.123 132.507 179.12 132.496C179.117 132.485 179.114 132.473 179.112 132.46C179.11 132.446 179.11 132.436 179.11 132.43H186.396C186.396 131.075 186.013 129.807 185.327 128.685L179.11 132.484ZM179.11 132.43C179.11 132.511 179.101 132.532 179.106 132.512C179.109 132.502 179.114 132.486 179.123 132.465C179.132 132.444 179.143 132.423 179.156 132.402C179.169 132.382 179.181 132.366 179.19 132.355C179.199 132.345 179.202 132.343 179.197 132.347C179.187 132.356 179.137 132.398 179.022 132.458L182.403 138.912C183.541 138.316 184.584 137.461 185.329 136.272C186.081 135.073 186.396 133.747 186.396 132.43H179.11ZM179.004 132.468C178.372 132.803 177.609 133.059 176.675 133.199L177.756 140.405C179.413 140.156 180.981 139.667 182.422 138.902L179.004 132.468ZM176.675 133.199C175.532 133.371 174.5 133.45 173.573 133.45V140.736C174.912 140.736 176.309 140.622 177.756 140.405L176.675 133.199ZM172.212 114.361C171.034 114.361 169.832 114.558 168.693 115.064L171.652 121.722C171.679 121.71 171.836 121.647 172.212 121.647V114.361ZM168.621 115.097C167.647 115.555 166.759 116.2 166.031 117.06L171.593 121.766C171.59 121.77 171.591 121.767 171.605 121.757C171.62 121.746 171.656 121.721 171.724 121.689L168.621 115.097ZM166.127 116.951C165.44 117.701 164.926 118.561 164.576 119.494L171.398 122.052C171.436 121.949 171.473 121.902 171.498 121.875L166.127 116.951ZM164.531 119.621C164.268 120.41 164.111 121.223 164.059 122.052L171.331 122.506C171.344 122.298 171.382 122.107 171.443 121.925L164.531 119.621ZM168.284 125.874L176.59 124.514L175.412 117.324L167.107 118.684L168.284 125.874ZM179.604 120.378C179.362 118.766 178.521 117.464 177.574 116.467L172.291 121.485C172.358 121.555 172.402 121.609 172.431 121.647C172.46 121.685 172.47 121.704 172.469 121.703C172.468 121.701 172.456 121.679 172.441 121.636C172.426 121.593 172.41 121.533 172.398 121.459L179.604 120.378ZM177.574 116.467C176.06 114.873 174.055 114.361 172.212 114.361V121.647C172.492 121.647 172.589 121.686 172.566 121.678C172.552 121.673 172.512 121.657 172.456 121.622C172.4 121.586 172.343 121.539 172.291 121.485L177.574 116.467ZM198.725 118.879L197.528 115.438L197.504 115.446L197.48 115.455L198.725 118.879ZM196.831 120.044L199.322 122.702L199.327 122.697L196.831 120.044ZM195.568 121.89L198.908 123.343L198.908 123.343L195.568 121.89ZM196.782 129.03L194.367 131.757L194.386 131.774L194.405 131.791L196.782 129.03ZM203.534 130.196L202.429 126.725L202.429 126.725L203.534 130.196ZM205.428 129.468L207.517 126.483L205.787 125.272L203.877 126.171L205.428 129.468ZM206.885 130.973L203.745 132.82L203.77 132.863L203.796 132.904L206.885 130.973ZM205.476 135.976L207.266 139.149L207.297 139.132L207.327 139.114L205.476 135.976ZM194.693 136.171L193.422 139.584L193.451 139.595L193.481 139.606L194.693 136.171ZM190.419 133.645L187.918 136.293L187.955 136.329L187.994 136.364L190.419 133.645ZM187.699 129.71L191.051 128.284L191.051 128.284L187.699 129.71ZM187.747 119.073L184.413 117.606L184.406 117.622L184.399 117.638L187.747 119.073ZM190.613 115.09L192.996 117.845L192.996 117.845L190.613 115.09ZM194.742 112.758L193.611 109.295L193.6 109.299L193.59 109.302L194.742 112.758ZM205.136 113.244L203.116 116.275L203.116 116.275L205.136 113.244ZM206.594 118.247L209.769 120.033L209.792 119.993L209.813 119.952L206.594 118.247ZM205.574 119.607L204.022 122.903L206.339 123.994L208.15 122.183L205.574 119.607ZM203.582 118.879L202.43 122.335L202.496 122.357L202.562 122.376L203.582 118.879ZM201.056 114.847C199.85 114.847 198.668 115.041 197.528 115.438L199.922 122.319C200.271 122.198 200.643 122.133 201.056 122.133V114.847ZM197.48 115.455C196.304 115.883 195.246 116.533 194.334 117.392L199.327 122.697C199.516 122.519 199.721 122.393 199.97 122.302L197.48 115.455ZM194.339 117.387C193.41 118.257 192.72 119.302 192.227 120.438L198.908 123.343C199.063 122.988 199.215 122.803 199.322 122.702L194.339 117.387ZM192.227 120.438C191.663 121.735 191.439 123.124 191.439 124.513H198.725C198.725 123.894 198.825 123.535 198.908 123.343L192.227 120.438ZM191.439 124.513C191.439 127.205 192.219 129.855 194.367 131.757L199.197 126.303C199.078 126.198 198.725 125.837 198.725 124.513H191.439ZM194.405 131.791C196.282 133.408 198.553 134.179 201.008 134.179V126.893C200.159 126.893 199.613 126.661 199.159 126.27L194.405 131.791ZM201.008 134.179C202.248 134.179 203.48 134.036 204.638 133.668L202.429 126.725C202.162 126.81 201.71 126.893 201.008 126.893V134.179ZM204.638 133.668C205.47 133.403 206.255 133.104 206.979 132.764L203.877 126.171C203.499 126.349 203.022 126.536 202.429 126.725L204.638 133.668ZM203.339 132.452C203.658 132.675 203.741 132.814 203.745 132.82L210.025 129.126C209.381 128.032 208.493 127.166 207.517 126.483L203.339 132.452ZM203.796 132.904C203.772 132.866 203.755 132.831 203.742 132.801C203.729 132.771 203.723 132.75 203.721 132.74C203.716 132.722 203.728 132.758 203.728 132.868H211.014C211.014 131.59 210.732 130.255 209.974 129.043L203.796 132.904ZM203.728 132.868C203.728 132.909 203.723 132.905 203.733 132.869C203.737 132.851 203.744 132.831 203.754 132.808C203.764 132.785 203.775 132.763 203.786 132.745C203.81 132.705 203.825 132.694 203.81 132.709C203.793 132.725 203.738 132.772 203.626 132.838L207.327 139.114C209.561 137.797 211.014 135.639 211.014 132.868H203.728ZM203.687 132.803C203.188 133.085 202.148 133.402 200.231 133.402V140.688C202.782 140.688 205.239 140.293 207.266 139.149L203.687 132.803ZM200.231 133.402C198.537 133.402 197.109 133.16 195.906 132.735L193.481 139.606C195.58 140.347 197.844 140.688 200.231 140.688V133.402ZM195.965 132.757C194.696 132.284 193.672 131.665 192.844 130.926L187.994 136.364C189.562 137.762 191.387 138.827 193.422 139.584L195.965 132.757ZM192.92 130.996C192.131 130.251 191.508 129.359 191.051 128.284L184.347 131.137C185.184 133.105 186.376 134.837 187.918 136.293L192.92 130.996ZM191.051 128.284C190.616 127.263 190.37 126.071 190.37 124.659H183.084C183.084 126.938 183.486 129.114 184.347 131.137L191.051 128.284ZM190.37 124.659C190.37 122.901 190.651 121.547 191.096 120.508L184.399 117.638C183.484 119.772 183.084 122.142 183.084 124.659H190.37ZM191.082 120.54C191.602 119.358 192.252 118.489 192.996 117.845L188.23 112.335C186.578 113.764 185.317 115.55 184.413 117.606L191.082 120.54ZM192.996 117.845C193.821 117.132 194.776 116.587 195.894 116.214L193.59 109.302C191.599 109.966 189.801 110.976 188.23 112.335L192.996 117.845ZM195.873 116.221C197.077 115.828 198.362 115.624 199.745 115.624V108.338C197.631 108.338 195.58 108.653 193.611 109.295L195.873 116.221ZM199.745 115.624C201.716 115.624 202.692 115.993 203.116 116.275L207.157 110.213C205.055 108.811 202.437 108.338 199.745 108.338V115.624ZM203.116 116.275C203.38 116.452 203.425 116.55 203.409 116.522C203.402 116.51 203.393 116.49 203.388 116.471C203.383 116.452 203.388 116.458 203.388 116.499H210.674C210.674 113.763 209.264 111.618 207.157 110.213L203.116 116.275ZM203.388 116.499C203.388 116.508 203.387 116.513 203.387 116.514C203.387 116.515 203.387 116.515 203.387 116.514C203.388 116.513 203.387 116.514 203.386 116.517C203.385 116.521 203.381 116.529 203.374 116.543L209.813 119.952C210.379 118.883 210.674 117.716 210.674 116.499H203.388ZM203.419 116.461C203.277 116.713 203.133 116.896 202.998 117.031L208.15 122.183C208.791 121.542 209.328 120.817 209.769 120.033L203.419 116.461ZM207.125 116.311C206.357 115.95 205.506 115.645 204.602 115.381L202.562 122.376C203.213 122.566 203.689 122.747 204.022 122.903L207.125 116.311ZM204.734 115.423C203.548 115.027 202.313 114.847 201.056 114.847V122.133C201.613 122.133 202.062 122.212 202.43 122.335L204.734 115.423ZM220.547 130.002L218.483 133.004L218.525 133.033L218.568 133.06L220.547 130.002ZM224.335 130.439L224.787 134.054L224.897 134.04L225.007 134.02L224.335 130.439ZM225.695 130.099L228.515 127.792L226.925 125.849L224.543 126.643L225.695 130.099ZM226.424 131.313L223.075 132.748L223.139 132.898L223.216 133.04L226.424 131.313ZM225.355 135.879L223.033 133.073L223.008 133.093L222.984 133.113L225.355 135.879ZM213.892 135.102L211.531 137.876L211.545 137.888L211.56 137.901L213.892 135.102ZM211.609 107.998L210.651 104.484L207.966 105.216V107.998H211.609ZM213.115 107.707L213.655 111.31L213.726 111.299L213.797 111.286L213.115 107.707ZM218.555 108.29L216.534 111.321L216.606 111.369L216.681 111.414L218.555 108.29ZM219.769 114.556H216.126V118.199H219.769V114.556ZM226.132 114.556L229.331 112.811L228.295 110.913H226.132V114.556ZM226.667 115.916L223.172 116.944L223.209 117.071L223.256 117.195L226.667 115.916ZM219.769 120.87V117.227H216.126V120.87H219.769ZM216.126 128.205C216.126 129.799 216.657 131.749 218.483 133.004L222.61 127C222.938 127.225 223.176 127.535 223.307 127.839C223.424 128.108 223.412 128.266 223.412 128.205H216.126ZM218.568 133.06C219.927 133.94 221.474 134.179 222.83 134.179V126.893C222.559 126.893 222.412 126.868 222.36 126.855C222.312 126.844 222.389 126.855 222.526 126.943L218.568 133.06ZM222.83 134.179C223.477 134.179 224.13 134.136 224.787 134.054L223.883 126.824C223.504 126.872 223.153 126.893 222.83 126.893V134.179ZM225.007 134.02C225.644 133.9 226.264 133.749 226.847 133.555L224.543 126.643C224.349 126.708 224.063 126.784 223.664 126.858L225.007 134.02ZM222.876 132.406C222.936 132.479 223.006 132.587 223.075 132.748L229.772 129.878C229.453 129.133 229.037 128.431 228.515 127.792L222.876 132.406ZM223.216 133.04C223.087 132.8 223.121 132.687 223.121 132.868H230.407C230.407 131.818 230.214 130.669 229.631 129.586L223.216 133.04ZM223.121 132.868C223.121 132.943 223.114 132.984 223.111 132.999C223.108 133.012 223.107 133.01 223.112 133C223.117 132.99 223.12 132.987 223.114 132.994C223.108 133.002 223.085 133.029 223.033 133.073L227.678 138.686C229.462 137.209 230.407 135.172 230.407 132.868H223.121ZM222.984 133.113C223.107 133.008 223.068 133.101 222.611 133.211C222.166 133.318 221.482 133.402 220.498 133.402V140.688C222.987 140.688 225.768 140.323 227.726 138.645L222.984 133.113ZM220.498 133.402C218.157 133.402 216.901 132.868 216.224 132.303L211.56 137.901C213.992 139.927 217.14 140.688 220.498 140.688V133.402ZM216.253 132.328C215.862 131.995 215.252 131.136 215.252 128.788H207.966C207.966 132.268 208.879 135.619 211.531 137.876L216.253 132.328ZM215.252 128.788V107.998H207.966V128.788H215.252ZM212.568 111.513C212.72 111.471 213.059 111.399 213.655 111.31L212.575 104.104C211.876 104.209 211.211 104.331 210.651 104.484L212.568 111.513ZM213.797 111.286C214.236 111.202 214.719 111.156 215.252 111.156V103.87C214.296 103.87 213.354 103.953 212.433 104.128L213.797 111.286ZM215.252 111.156C215.753 111.156 216.095 111.202 216.312 111.253C216.526 111.303 216.575 111.348 216.534 111.321L220.576 105.259C218.962 104.183 217.044 103.87 215.252 103.87V111.156ZM216.681 111.414C216.491 111.3 216.338 111.158 216.227 111.018C216.121 110.883 216.077 110.779 216.066 110.751C216.056 110.726 216.073 110.762 216.092 110.885C216.11 111.007 216.126 111.19 216.126 111.447H223.412C223.412 109.479 222.95 106.678 220.429 105.166L216.681 111.414ZM216.126 111.447V114.556H223.412V111.447H216.126ZM219.769 118.199H226.132V110.913H219.769V118.199ZM222.934 116.3C222.965 116.357 223.056 116.548 223.172 116.944L230.162 114.888C229.954 114.182 229.688 113.467 229.331 112.811L222.934 116.3ZM223.256 117.195C223.273 117.241 223.315 117.38 223.315 117.664H230.601C230.601 116.653 230.449 115.627 230.078 114.637L223.256 117.195ZM223.315 117.664C223.315 117.811 223.307 117.914 223.298 117.979C223.289 118.045 223.282 118.063 223.288 118.043C223.294 118.023 223.316 117.96 223.367 117.872C223.42 117.781 223.497 117.673 223.605 117.566L228.757 122.718C230.252 121.222 230.601 119.248 230.601 117.664H223.315ZM223.605 117.566C223.748 117.423 223.916 117.322 224.067 117.267C224.205 117.216 224.263 117.227 224.19 117.227V124.513C225.766 124.513 227.44 124.035 228.757 122.718L223.605 117.566ZM224.19 117.227H219.769V124.513H224.19V117.227ZM216.126 120.87V128.205H223.412V120.87H216.126Z" fill="black"/>
<path d="M83.2772 121.604C83.2772 119.083 83.665 116.853 84.4406 114.914C85.2485 112.975 86.3311 111.36 87.6884 110.067C89.078 108.742 90.6939 107.74 92.5359 107.061C94.4103 106.383 96.4301 106.043 98.5953 106.043C100.761 106.043 102.764 106.383 104.606 107.061C106.481 107.74 108.113 108.742 109.502 110.067C110.892 111.36 111.974 112.975 112.75 114.914C113.558 116.853 113.962 119.083 113.962 121.604C113.962 124.125 113.574 126.371 112.798 128.342C112.023 130.281 110.94 131.913 109.551 133.238C108.193 134.531 106.578 135.516 104.703 136.195C102.829 136.874 100.793 137.213 98.5953 137.213C96.3978 137.213 94.3618 136.874 92.4874 136.195C90.6131 135.484 88.9972 134.466 87.6399 133.141C86.2826 131.816 85.2162 130.184 84.4406 128.245C83.665 126.306 83.2772 124.092 83.2772 121.604ZM92.0027 121.604C92.0027 124.545 92.6006 126.742 93.7963 128.197C94.992 129.651 96.5917 130.378 98.5953 130.378C100.631 130.378 102.247 129.651 103.443 128.197C104.639 126.742 105.236 124.545 105.236 121.604C105.236 118.695 104.639 116.514 103.443 115.06C102.279 113.606 100.68 112.878 98.6438 112.878C96.6401 112.878 95.0243 113.606 93.7963 115.06C92.6006 116.482 92.0027 118.663 92.0027 121.604ZM118.282 104.783C118.605 104.686 119.122 104.589 119.833 104.492C120.544 104.363 121.272 104.298 122.015 104.298C122.726 104.298 123.356 104.347 123.905 104.444C124.487 104.541 124.972 104.735 125.36 105.025C125.747 105.316 126.038 105.72 126.232 106.237C126.426 106.722 126.523 107.368 126.523 108.176V112.927C127.331 112.604 128.09 112.378 128.801 112.248C129.545 112.119 130.353 112.054 131.225 112.054C132.776 112.054 134.247 112.329 135.636 112.878C137.026 113.428 138.254 114.236 139.32 115.302C140.387 116.336 141.227 117.629 141.841 119.18C142.455 120.731 142.762 122.525 142.762 124.561C142.762 126.661 142.439 128.504 141.793 130.087C141.179 131.638 140.306 132.931 139.175 133.965C138.044 134.999 136.654 135.791 135.006 136.34C133.39 136.857 131.597 137.116 129.625 137.116C127.492 137.116 125.683 136.857 124.196 136.34C122.71 135.856 121.449 135.242 120.415 134.498C118.993 133.496 118.282 132.204 118.282 130.62V104.783ZM129.625 130.62C131.112 130.62 132.259 130.119 133.067 129.118C133.907 128.083 134.327 126.565 134.327 124.561C134.327 122.525 133.907 121.006 133.067 120.004C132.227 119.002 131.096 118.502 129.674 118.502C129.028 118.502 128.462 118.566 127.977 118.695C127.525 118.825 127.024 119.019 126.475 119.277V129.845C126.83 130.071 127.25 130.265 127.735 130.426C128.252 130.556 128.882 130.62 129.625 130.62ZM146.826 106.237C146.826 105.009 147.23 103.975 148.038 103.135C148.879 102.295 149.977 101.875 151.335 101.875C152.692 101.875 153.775 102.295 154.582 103.135C155.423 103.975 155.843 105.009 155.843 106.237C155.843 107.465 155.423 108.5 154.582 109.34C153.775 110.18 152.692 110.6 151.335 110.6C149.977 110.6 148.879 110.18 148.038 109.34C147.23 108.5 146.826 107.465 146.826 106.237ZM145.178 139.637C145.889 139.184 146.406 138.554 146.729 137.746C147.053 136.971 147.214 136.098 147.214 135.128V113.121C147.57 113.056 148.087 112.975 148.765 112.878C149.476 112.749 150.187 112.685 150.898 112.685C151.609 112.685 152.239 112.733 152.789 112.83C153.371 112.927 153.855 113.121 154.243 113.412C154.631 113.702 154.922 114.106 155.116 114.624C155.342 115.108 155.455 115.755 155.455 116.563V135.904C155.455 137.261 155.293 138.489 154.97 139.588C154.647 140.687 154.178 141.624 153.564 142.4C152.983 143.208 152.256 143.822 151.383 144.242C150.543 144.694 149.59 144.92 148.523 144.92C147.101 144.92 145.986 144.484 145.178 143.612C144.37 142.771 143.95 141.705 143.918 140.412L145.178 139.637ZM173.154 137.116C171.247 137.116 169.47 136.857 167.821 136.34C166.206 135.791 164.784 134.983 163.556 133.917C162.36 132.85 161.407 131.509 160.696 129.893C160.017 128.277 159.678 126.387 159.678 124.222C159.678 122.089 160.017 120.263 160.696 118.744C161.407 117.193 162.328 115.932 163.459 114.963C164.59 113.961 165.882 113.234 167.337 112.781C168.791 112.297 170.278 112.054 171.796 112.054C173.509 112.054 175.06 112.313 176.45 112.83C177.872 113.347 179.084 114.058 180.086 114.963C181.12 115.868 181.912 116.95 182.461 118.211C183.043 119.471 183.333 120.844 183.333 122.331C183.333 123.43 183.026 124.27 182.412 124.852C181.798 125.433 180.942 125.805 179.843 125.967L167.87 127.76C168.225 128.827 168.953 129.635 170.051 130.184C171.15 130.701 172.41 130.96 173.832 130.96C175.157 130.96 176.402 130.798 177.565 130.475C178.761 130.119 179.73 129.715 180.473 129.263C180.99 129.586 181.427 130.039 181.782 130.62C182.138 131.202 182.315 131.816 182.315 132.462C182.315 133.917 181.637 134.999 180.28 135.71C179.245 136.26 178.082 136.631 176.789 136.825C175.497 137.019 174.285 137.116 173.154 137.116ZM171.796 118.065C171.021 118.065 170.342 118.195 169.76 118.453C169.211 118.712 168.759 119.051 168.403 119.471C168.048 119.859 167.773 120.311 167.579 120.828C167.417 121.313 167.321 121.814 167.288 122.331L175.577 120.974C175.48 120.327 175.125 119.681 174.511 119.035C173.897 118.388 172.992 118.065 171.796 118.065ZM200.582 118.55C199.774 118.55 198.999 118.679 198.255 118.938C197.544 119.196 196.914 119.584 196.365 120.101C195.848 120.586 195.428 121.2 195.105 121.943C194.781 122.687 194.62 123.559 194.62 124.561C194.62 126.565 195.185 128.067 196.316 129.069C197.48 130.071 198.886 130.572 200.534 130.572C201.503 130.572 202.343 130.459 203.054 130.232C203.765 130.006 204.396 129.764 204.945 129.505C205.591 129.958 206.076 130.459 206.399 131.008C206.722 131.525 206.884 132.155 206.884 132.899C206.884 134.224 206.254 135.258 204.993 136.001C203.733 136.712 201.988 137.067 199.758 137.067C197.722 137.067 195.88 136.777 194.232 136.195C192.584 135.581 191.162 134.741 189.966 133.674C188.803 132.575 187.898 131.267 187.252 129.748C186.605 128.229 186.282 126.548 186.282 124.706C186.282 122.573 186.621 120.715 187.3 119.132C188.011 117.516 188.964 116.191 190.16 115.157C191.356 114.123 192.729 113.347 194.28 112.83C195.864 112.313 197.528 112.054 199.273 112.054C201.6 112.054 203.394 112.474 204.654 113.315C205.914 114.155 206.545 115.238 206.545 116.563C206.545 117.177 206.399 117.758 206.108 118.308C205.818 118.825 205.478 119.277 205.09 119.665C204.541 119.406 203.879 119.164 203.103 118.938C202.327 118.679 201.487 118.55 200.582 118.55ZM219.258 128.245C219.258 129.085 219.516 129.683 220.033 130.039C220.583 130.394 221.342 130.572 222.312 130.572C222.796 130.572 223.297 130.539 223.814 130.475C224.331 130.378 224.784 130.265 225.172 130.136C225.462 130.491 225.705 130.895 225.899 131.347C226.125 131.768 226.238 132.285 226.238 132.899C226.238 134.127 225.769 135.128 224.832 135.904C223.927 136.68 222.312 137.067 219.985 137.067C217.141 137.067 214.943 136.421 213.392 135.128C211.873 133.836 211.114 131.735 211.114 128.827V108.079C211.469 107.982 211.97 107.885 212.617 107.789C213.295 107.659 214.006 107.595 214.749 107.595C216.171 107.595 217.27 107.853 218.046 108.37C218.854 108.855 219.258 109.905 219.258 111.521V114.624H225.608C225.802 114.979 225.979 115.431 226.141 115.981C226.335 116.498 226.432 117.08 226.432 117.726C226.432 118.857 226.173 119.681 225.656 120.198C225.172 120.683 224.509 120.925 223.669 120.925H219.258V128.245Z" fill="white"/>
<path d="M129.906 59.7339C130.707 60.2302 131.333 60.7856 131.784 61.4003C132.235 62.015 132.551 62.7987 132.731 63.7518C132.912 64.7048 133.002 65.9257 133.002 67.4144C133.002 68.531 133.027 69.3543 133.078 69.8844C133.129 70.4144 133.23 70.8177 133.383 71.0939C133.535 71.3702 133.718 71.5508 133.932 71.6353C134.147 71.7199 134.513 71.8016 135.032 71.8806C135.461 71.9369 135.816 72.1456 136.098 72.5066C136.38 72.8675 136.521 73.3411 136.521 73.9275C136.521 75.2923 135.692 75.9745 134.034 75.9745C133.008 75.9745 132.091 75.7603 131.285 75.3317C130.478 74.9031 129.855 74.297 129.415 73.5131C128.976 72.7292 128.75 71.8298 128.739 70.8147C128.705 69.1005 128.671 67.7246 128.637 66.687C128.603 65.6493 128.553 64.9784 128.485 64.6737C128.316 63.9181 128.065 63.3486 127.732 62.9651C127.4 62.5817 126.965 62.2236 126.43 61.8909C125.894 61.5581 125.513 61.2592 125.288 60.9942C125.062 60.7292 124.949 60.3091 124.949 59.7339C124.949 58.8994 125.276 58.2733 125.931 57.856C126.743 57.3485 127.321 56.9171 127.665 56.5619C128.008 56.2066 128.251 55.7499 128.392 55.1916C128.533 54.6334 128.615 54.0243 128.637 53.3645C128.66 52.7048 128.694 51.1173 128.739 48.6023C128.773 47.0459 129.266 45.8024 130.219 44.872C131.172 43.9415 132.444 43.4763 134.034 43.4763C135.692 43.4763 136.521 44.1474 136.521 45.4895C136.521 46.0985 136.383 46.5778 136.106 46.9275C135.83 47.2771 135.472 47.4801 135.032 47.5365C134.378 47.6267 133.921 47.7621 133.662 47.9425C133.402 48.123 133.233 48.4726 133.154 48.9914C133.075 49.5102 133.025 50.5139 133.002 52.0026C132.979 53.4576 132.892 54.6502 132.74 55.5807C132.587 56.5112 132.289 57.3035 131.843 57.9577C131.398 58.6117 130.752 59.2038 129.906 59.7339Z" fill="white"/>
<path d="M179.451 59.7339C178.842 59.3505 178.345 58.95 177.962 58.5328C177.578 58.1155 177.263 57.608 177.014 57.0102C176.766 56.4124 176.592 55.7048 176.49 54.8871C176.389 54.0693 176.338 53.1079 176.338 52.0026C176.338 50.9312 176.315 50.1107 176.27 49.5412C176.225 48.9716 176.135 48.5572 175.999 48.2978C175.864 48.0384 175.675 47.8607 175.433 47.7649C175.19 47.669 174.821 47.5929 174.325 47.5365C173.907 47.4801 173.555 47.2771 173.267 46.9275C172.98 46.5778 172.836 46.0985 172.836 45.4895C172.836 44.1474 173.654 43.4763 175.289 43.4763C176.338 43.4763 177.26 43.6878 178.055 44.1107C178.85 44.5336 179.476 45.1371 179.933 45.9209C180.39 46.7047 180.624 47.5985 180.635 48.6023C180.703 52.3467 180.781 54.4049 180.872 54.7771C181.052 55.5215 181.317 56.0882 181.667 56.4774C182.016 56.8664 182.439 57.2104 182.936 57.5093C183.432 57.8082 183.801 58.1042 184.044 58.3975C184.286 58.6908 184.407 59.1361 184.407 59.7339C184.407 60.5797 184.086 61.2001 183.443 61.5948C182.654 62.0798 182.081 62.5056 181.726 62.872C181.371 63.2387 181.123 63.6954 180.982 64.2424C180.841 64.7893 180.756 65.6099 180.728 66.7038C180.7 67.7979 180.669 69.1682 180.635 70.8147C180.601 72.3712 180.102 73.6203 179.138 74.562C178.173 75.5037 176.89 75.9746 175.289 75.9746C174.499 75.9746 173.893 75.7998 173.47 75.4501C173.047 75.1006 172.836 74.5931 172.836 73.9276C172.836 73.5554 172.904 73.2142 173.039 72.9042C173.174 72.5939 173.352 72.3542 173.572 72.1851C173.792 72.0159 174.043 71.9144 174.325 71.8806C174.832 71.813 175.21 71.7283 175.458 71.6269C175.706 71.5253 175.895 71.3336 176.025 71.0517C176.155 70.7697 176.239 70.3552 176.279 69.8083C176.318 69.2613 176.338 68.4633 176.338 67.4144C176.36 65.858 176.451 64.6401 176.609 63.7603C176.766 62.8806 177.065 62.125 177.505 61.4933C177.945 60.8617 178.593 60.2753 179.451 59.7339Z" fill="white"/>
<path d="M141.096 66.497C140.774 66.0059 140.614 65.3113 140.614 64.4128V53.2618C140.614 52.5264 140.761 51.9097 141.056 51.4121C141.351 50.9144 141.827 50.4851 142.483 50.124L151.659 45.1232C152.504 44.6608 153.387 44.4296 154.308 44.4296C155.228 44.4296 156.109 44.6608 156.95 45.1232L166.133 50.124C166.789 50.4851 167.263 50.9144 167.556 51.4121C167.849 51.9097 167.996 52.5264 167.996 53.2618V64.4128C167.996 65.3113 167.836 66.0059 167.517 66.497C167.197 66.9881 166.692 67.4229 166 67.8017L155.411 73.5358C155.063 73.7252 154.694 73.8199 154.304 73.8199C153.915 73.8199 153.548 73.7252 153.205 73.5358L142.609 67.8017C141.922 67.4229 141.417 66.9881 141.096 66.497ZM152.716 69.7175V59.8547L143.659 54.8935V63.8315C143.659 64.1442 143.724 64.404 143.854 64.6109C143.984 64.8179 144.212 65.0118 144.538 65.1923L152.716 69.7175ZM164.755 64.6109C164.885 64.404 164.95 64.1442 164.95 63.8315V54.8935L155.9 59.8547V69.7175L164.078 65.1923C164.4 65.0118 164.625 64.8179 164.755 64.6109ZM157.221 55.4617L148.29 50.5996L145.403 52.1983L154.308 57.0669L157.221 55.4617ZM163.213 52.1983L155.563 48.01C154.726 47.552 153.889 47.552 153.053 48.01L151.566 48.8358L160.471 53.7111L163.213 52.1983Z" fill="white"/>
</g>
<defs>
<linearGradient id="paint0_linear_11_122" x1="154.649" y1="5" x2="154.649" y2="154.649" gradientUnits="userSpaceOnUse">
<stop stop-color="#2756FF"/>
<stop offset="1" stop-color="#4971FF"/>
</linearGradient>
<clipPath id="clip0_11_122">
<rect width="309.297" height="168.706" fill="white"/>
</clipPath>
</defs>
</svg>
