<svg width="310" height="162" viewBox="0 0 310 162" fill="none" xmlns="http://www.w3.org/2000/svg">
<path d="M7.82788 153.149V6.5H301.47V153.149H7.82788Z" fill="#895A1D"/>
<path d="M5.18026 101.692L22.7206 84.1516L62.9378 124.369L34.3975 152.909L4.38574 149.251L5.18026 101.692Z" fill="#A56D22"/>
<path d="M274.491 153.146L245.714 124.369L285.931 84.1516L305.458 103.679L304.003 150.015L274.491 153.146Z" fill="#A56D22"/>
<path d="M305.958 10.47L285.931 30.4971L261.786 6.35132L305.958 10.47Z" fill="#A56D22"/>
<path d="M48.8529 4.36462L22.7205 30.4971L6.18018 13.9568L16.3645 5.55511L48.8529 4.36462Z" fill="#A56D22"/>
<path d="M228.793 91.9098L194.852 57.9686L228.793 24.0275L262.734 57.9687L228.793 91.9098Z" fill="#A56D22"/>
<path d="M281.121 76.6819L262.407 57.9687L281.121 39.2554L299.834 57.9687L281.121 76.6819Z" fill="#F9A83A"/>
<path d="M262.734 47.3486L250.171 34.7852L262.734 22.2217L275.297 34.7852L262.734 47.3486Z" fill="#F9A83A"/>
<path d="M262.734 94.3486L250.171 81.7852L262.734 69.2218L275.297 81.7852L262.734 94.3486Z" fill="#F9A83A"/>
<path d="M197.734 35.4516L171.504 9.2215H223.964L197.734 35.4516Z" fill="#F9A83A"/>
<path d="M197.734 133.579L171.504 107.349L197.734 81.1188L223.964 107.349L197.734 133.579Z" fill="#F9A83A"/>
<path d="M46.5276 58.2852L80.4687 24.3441L114.41 58.2852L80.4687 92.2263L46.5276 58.2852Z" fill="#F9A83A"/>
<path d="M9.42773 58.2852L28.141 39.5719L46.8543 58.2852L28.141 76.9985L9.42773 58.2852Z" fill="#F9A83A"/>
<path d="M33.9641 35.1017L46.5275 22.5383L59.0909 35.1017L46.5275 47.6651L33.9641 35.1017Z" fill="#F9A83A"/>
<path d="M33.9641 82.1017L46.5275 69.5383L59.0909 82.1017L46.5275 94.6651L33.9641 82.1017Z" fill="#F9A83A"/>
<path d="M85.2976 9.53802H137.758L111.528 35.7681L85.2976 9.53802Z" fill="#F9A83A"/>
<path d="M85.2976 107.665L111.528 81.4353L137.758 107.665L111.528 133.895L85.2976 107.665Z" fill="#F9A83A"/>
<path d="M5 17.4957C5 11.0967 10.9155 5 18.1192 5C47.0517 5 237.848 5 290.729 5C299.343 5 304.297 9.64378 304.297 17.2462C304.297 47.8384 304.297 126.339 304.297 142.951C304.297 148.991 299.438 154.649 290.979 154.649C238.512 154.649 47.5526 154.649 18.3686 154.649C11.0407 154.649 5 150.125 5 142.702C5 112.541 5 34.5083 5 17.4957Z" stroke="url(#paint0_linear_7_40)" stroke-width="10" stroke-miterlimit="10"/>
<path d="M120.708 58.2852C120.708 39.54 135.903 24.3441 154.649 24.3441C173.394 24.3441 188.59 39.54 188.59 58.2852C188.59 77.0303 173.394 92.2263 154.649 92.2263C135.903 92.2263 120.708 77.0303 120.708 58.2852Z" stroke="white" stroke-width="7.5" stroke-miterlimit="10"/>
<path d="M120.708 58.2852C120.708 39.54 135.903 24.3441 154.649 24.3441C173.394 24.3441 188.59 39.54 188.59 58.2852C188.59 77.0303 173.394 92.2263 154.649 92.2263C135.903 92.2263 120.708 77.0303 120.708 58.2852Z" fill="#FA9C19"/>
<path d="M84.3973 114.07C84.7535 113.908 85.304 113.73 86.0487 113.536C86.8259 113.309 87.6031 113.196 88.3802 113.196C89.7403 113.196 90.8736 113.406 91.7803 113.827C92.687 114.216 93.2375 114.799 93.4318 115.576C93.788 116.903 94.1118 118.15 94.4033 119.316C94.7271 120.449 95.0347 121.55 95.3261 122.619C95.6176 123.655 95.8928 124.691 96.1519 125.727C96.4433 126.764 96.7186 127.848 96.9776 128.982H97.2205C97.5119 127.007 97.771 125.128 97.9976 123.347C98.2243 121.534 98.4348 119.769 98.6291 118.053C98.8234 116.304 99.0177 114.588 99.212 112.904C99.4063 111.188 99.6006 109.456 99.7948 107.707C100.993 107.027 102.272 106.687 103.632 106.687C104.83 106.687 105.866 106.946 106.741 107.464C107.615 107.982 108.052 108.857 108.052 110.087C108.052 110.799 107.971 111.819 107.809 113.147C107.68 114.442 107.486 115.9 107.226 117.519C107 119.138 106.725 120.838 106.401 122.619C106.077 124.4 105.737 126.1 105.381 127.719C105.025 129.338 104.652 130.811 104.264 132.139C103.907 133.434 103.567 134.438 103.244 135.151C102.758 135.604 101.964 135.976 100.863 136.268C99.7625 136.559 98.6291 136.705 97.4633 136.705C95.9414 136.705 94.6461 136.511 93.5775 136.122C92.5413 135.701 91.9099 135.118 91.6832 134.373C91.2622 133.078 90.8089 131.54 90.3231 129.759C89.8374 127.978 89.3193 126.019 88.7688 123.882C88.3155 125.987 87.8459 128.043 87.3602 130.05C86.8745 132.058 86.4373 133.758 86.0487 135.151C85.563 135.604 84.8344 135.976 83.863 136.268C82.8915 136.559 81.8229 136.705 80.6572 136.705C79.2 136.705 77.8723 136.511 76.6742 136.122C75.5084 135.701 74.7475 135.118 74.3913 134.373C74.0998 133.791 73.776 132.932 73.4198 131.799C73.096 130.633 72.756 129.322 72.3998 127.865C72.0436 126.375 71.6712 124.772 71.2826 123.056C70.9264 121.34 70.5864 119.623 70.2626 117.907C69.9711 116.191 69.6959 114.523 69.4368 112.904C69.1778 111.253 68.9835 109.747 68.854 108.387C69.3073 107.966 69.9388 107.577 70.7483 107.221C71.5579 106.865 72.4322 106.687 73.3712 106.687C74.6017 106.687 75.6056 106.962 76.3828 107.513C77.1923 108.031 77.6942 108.921 77.8885 110.184C78.4066 113.487 78.8276 116.24 79.1514 118.442C79.5076 120.644 79.7828 122.457 79.9771 123.882C80.2038 125.274 80.3657 126.359 80.4629 127.136C80.56 127.913 80.6572 128.529 80.7543 128.982H80.9972C81.2886 127.687 81.5639 126.488 81.8229 125.387C82.082 124.286 82.341 123.185 82.6001 122.085C82.8915 120.951 83.1829 119.753 83.4744 118.49C83.7658 117.195 84.0734 115.721 84.3973 114.07ZM124.106 137.094C122.196 137.094 120.415 136.834 118.763 136.316C117.144 135.766 115.719 134.956 114.489 133.888C113.291 132.819 112.335 131.475 111.623 129.856C110.943 128.237 110.603 126.343 110.603 124.173C110.603 122.036 110.943 120.206 111.623 118.684C112.335 117.13 113.258 115.867 114.392 114.896C115.525 113.892 116.82 113.163 118.278 112.71C119.735 112.224 121.224 111.981 122.746 111.981C124.462 111.981 126.017 112.24 127.409 112.759C128.834 113.277 130.048 113.989 131.052 114.896C132.088 115.802 132.882 116.887 133.432 118.15C134.015 119.413 134.307 120.789 134.307 122.279C134.307 123.38 133.999 124.222 133.384 124.805C132.768 125.387 131.91 125.76 130.809 125.922L118.812 127.719C119.168 128.788 119.897 129.597 120.998 130.148C122.099 130.666 123.362 130.925 124.786 130.925C126.114 130.925 127.361 130.763 128.526 130.439C129.725 130.083 130.696 129.678 131.441 129.225C131.959 129.549 132.396 130.002 132.752 130.585C133.108 131.168 133.287 131.783 133.287 132.431C133.287 133.888 132.607 134.972 131.246 135.685C130.21 136.235 129.045 136.608 127.749 136.802C126.454 136.996 125.24 137.094 124.106 137.094ZM122.746 118.004C121.969 118.004 121.289 118.134 120.706 118.393C120.156 118.652 119.702 118.992 119.346 119.413C118.99 119.802 118.715 120.255 118.52 120.773C118.359 121.259 118.261 121.761 118.229 122.279L126.535 120.919C126.438 120.271 126.082 119.623 125.466 118.976C124.851 118.328 123.944 118.004 122.746 118.004ZM138.378 104.695C138.702 104.598 139.22 104.501 139.933 104.404C140.645 104.274 141.374 104.21 142.118 104.21C142.831 104.21 143.462 104.258 144.013 104.355C144.596 104.453 145.081 104.647 145.47 104.938C145.859 105.23 146.15 105.635 146.344 106.153C146.539 106.638 146.636 107.286 146.636 108.096V112.856C147.445 112.532 148.206 112.305 148.919 112.176C149.663 112.046 150.473 111.981 151.347 111.981C152.902 111.981 154.375 112.257 155.767 112.807C157.16 113.358 158.39 114.167 159.459 115.236C160.528 116.272 161.369 117.567 161.985 119.122C162.6 120.676 162.908 122.473 162.908 124.513C162.908 126.618 162.584 128.464 161.936 130.05C161.321 131.605 160.447 132.9 159.313 133.936C158.18 134.972 156.787 135.766 155.136 136.316C153.517 136.834 151.72 137.094 149.744 137.094C147.607 137.094 145.794 136.834 144.304 136.316C142.815 135.831 141.552 135.215 140.516 134.471C139.091 133.467 138.378 132.171 138.378 130.585V104.695ZM149.744 130.585C151.234 130.585 152.383 130.083 153.193 129.079C154.035 128.043 154.456 126.521 154.456 124.513C154.456 122.473 154.035 120.951 153.193 119.947C152.351 118.943 151.218 118.442 149.793 118.442C149.145 118.442 148.579 118.506 148.093 118.636C147.64 118.765 147.138 118.96 146.587 119.219V129.808C146.943 130.034 147.364 130.229 147.85 130.39C148.368 130.52 149 130.585 149.744 130.585ZM176.015 126.796V136.122C175.658 136.219 175.092 136.316 174.315 136.413C173.57 136.511 172.825 136.559 172.08 136.559C171.335 136.559 170.672 136.494 170.089 136.365C169.538 136.268 169.069 136.073 168.68 135.782C168.324 135.491 168.049 135.086 167.854 134.568C167.66 134.05 167.563 133.37 167.563 132.528V109.65C167.563 108.97 167.741 108.452 168.097 108.096C168.486 107.707 169.004 107.399 169.652 107.173C170.753 106.784 172.032 106.509 173.489 106.347C174.946 106.153 176.5 106.055 178.152 106.055C182.621 106.055 185.988 106.995 188.255 108.873C190.522 110.751 191.655 113.293 191.655 116.499C191.655 118.506 191.137 120.223 190.101 121.647C189.065 123.072 187.834 124.173 186.409 124.95C187.575 126.537 188.725 128.027 189.858 129.419C190.991 130.811 191.882 132.074 192.529 133.208C192.206 134.341 191.607 135.215 190.732 135.831C189.89 136.413 188.935 136.705 187.866 136.705C187.154 136.705 186.539 136.624 186.021 136.462C185.503 136.3 185.049 136.073 184.661 135.782C184.272 135.491 183.916 135.134 183.592 134.713C183.268 134.292 182.961 133.839 182.669 133.353L178.589 126.796H176.015ZM179.075 120.336C180.305 120.336 181.277 120.028 181.989 119.413C182.702 118.765 183.058 117.826 183.058 116.596C183.058 115.365 182.653 114.442 181.843 113.827C181.066 113.18 179.82 112.856 178.103 112.856C177.618 112.856 177.229 112.872 176.938 112.904C176.646 112.937 176.322 112.985 175.966 113.05V120.336H179.075ZM195.09 113.681C194.864 113.325 194.653 112.839 194.459 112.224C194.265 111.609 194.168 110.961 194.168 110.281C194.168 109.018 194.443 108.112 194.993 107.561C195.576 107.011 196.321 106.736 197.228 106.736H218.405C218.632 107.092 218.843 107.577 219.037 108.193C219.231 108.808 219.328 109.456 219.328 110.136C219.328 111.398 219.037 112.305 218.454 112.856C217.904 113.406 217.175 113.681 216.268 113.681H210.877V136.122C210.52 136.219 209.954 136.316 209.177 136.413C208.432 136.511 207.687 136.559 206.942 136.559C206.197 136.559 205.534 136.494 204.951 136.365C204.4 136.268 203.931 136.073 203.542 135.782C203.154 135.491 202.862 135.086 202.668 134.568C202.474 134.05 202.376 133.37 202.376 132.528V113.681H195.09ZM237.169 112.807C234.676 112.807 232.765 113.568 231.437 115.09C230.11 116.612 229.446 118.765 229.446 121.55C229.446 124.367 230.174 126.537 231.632 128.059C233.121 129.581 235.113 130.342 237.606 130.342C238.934 130.342 240.051 130.164 240.958 129.808C241.897 129.451 242.787 129.047 243.629 128.593C244.18 129.047 244.601 129.597 244.892 130.245C245.216 130.86 245.378 131.589 245.378 132.431C245.378 133.758 244.633 134.892 243.143 135.831C241.686 136.737 239.452 137.191 236.44 137.191C234.271 137.191 232.231 136.883 230.32 136.268C228.41 135.653 226.742 134.713 225.317 133.451C223.892 132.155 222.759 130.536 221.917 128.593C221.108 126.618 220.703 124.27 220.703 121.55C220.703 119.024 221.091 116.806 221.869 114.896C222.678 112.953 223.763 111.318 225.123 109.99C226.515 108.662 228.134 107.658 229.98 106.978C231.826 106.298 233.801 105.958 235.906 105.958C238.885 105.958 241.184 106.444 242.803 107.416C244.455 108.387 245.281 109.634 245.281 111.156C245.281 111.998 245.07 112.726 244.649 113.341C244.228 113.957 243.742 114.442 243.192 114.799C242.35 114.248 241.443 113.779 240.472 113.39C239.533 113.001 238.432 112.807 237.169 112.807Z" fill="white"/>
<path d="M84.3973 114.07L82.8898 110.754L81.1831 111.529L80.8224 113.369L84.3973 114.07ZM86.0487 113.536L86.9683 117.061L87.0187 117.048L87.0688 117.033L86.0487 113.536ZM91.7803 113.827L90.2462 117.131L90.2954 117.154L90.3453 117.176L91.7803 113.827ZM93.4318 115.576L89.8976 116.459L89.9052 116.49L89.9133 116.52L93.4318 115.576ZM94.4033 119.316L90.8691 120.199L90.8838 120.258L90.9005 120.317L94.4033 119.316ZM95.3261 122.619L91.8116 123.577L91.8153 123.591L91.8192 123.605L95.3261 122.619ZM96.1519 125.727L92.6177 126.611L92.6306 126.663L92.645 126.714L96.1519 125.727ZM96.9776 128.982L93.4263 129.794L94.0734 132.625H96.9776V128.982ZM97.2205 128.982V132.625H100.365L100.824 129.514L97.2205 128.982ZM97.9976 123.347L101.611 123.807L101.612 123.799L97.9976 123.347ZM98.6291 118.053L102.249 118.463L102.25 118.455L98.6291 118.053ZM99.212 112.904L102.831 113.322L102.832 113.314L99.212 112.904ZM99.7948 107.707L97.9967 104.539L96.3795 105.457L96.1742 107.305L99.7948 107.707ZM106.741 107.464L108.598 104.33L108.598 104.33L106.741 107.464ZM107.809 113.147L104.193 112.706L104.188 112.745L104.184 112.785L107.809 113.147ZM107.226 117.519L103.629 116.943L103.624 116.978L103.619 117.014L107.226 117.519ZM106.401 122.619L109.985 123.27L109.985 123.27L106.401 122.619ZM105.381 127.719L101.823 126.936L101.823 126.936L105.381 127.719ZM104.264 132.139L100.767 131.116L100.759 131.144L100.751 131.173L104.264 132.139ZM103.244 135.151L105.729 137.814L106.26 137.319L106.56 136.658L103.244 135.151ZM100.863 136.268L99.9312 132.746L99.9312 132.746L100.863 136.268ZM93.5775 136.122L92.2064 139.497L92.269 139.523L92.3326 139.546L93.5775 136.122ZM91.6832 134.373L95.1683 133.313L95.1583 133.28L95.1478 133.247L91.6832 134.373ZM90.3231 129.759L86.8086 130.718L86.8086 130.718L90.3231 129.759ZM88.7688 123.882L92.2966 122.973L88.4525 108.049L85.2075 123.115L88.7688 123.882ZM87.3602 130.05L83.8194 129.194L83.8194 129.194L87.3602 130.05ZM86.0487 135.151L88.5344 137.814L89.2825 137.116L89.5576 136.13L86.0487 135.151ZM83.863 136.268L84.9098 139.757L83.863 136.268ZM76.6742 136.122L75.4369 139.548L75.4933 139.569L75.5503 139.587L76.6742 136.122ZM74.3913 134.373L77.6777 132.802L77.6639 132.773L77.6496 132.744L74.3913 134.373ZM73.4198 131.799L69.9098 132.774L69.9261 132.833L69.9445 132.891L73.4198 131.799ZM72.3998 127.865L68.8567 128.712L68.8588 128.721L68.861 128.73L72.3998 127.865ZM71.2826 123.056L67.7157 123.796L67.7223 123.828L67.7296 123.86L71.2826 123.056ZM70.2626 117.907L66.671 118.517L66.6766 118.55L66.6828 118.583L70.2626 117.907ZM69.4368 112.904L65.8379 113.469L65.8396 113.48L69.4368 112.904ZM68.854 108.387L66.3751 105.717L65.0569 106.942L65.2274 108.732L68.854 108.387ZM70.7483 107.221L69.2811 103.887L69.2811 103.887L70.7483 107.221ZM76.3828 107.513L74.2771 110.485L74.3469 110.535L74.419 110.581L76.3828 107.513ZM77.8885 110.184L74.2879 110.738L74.2896 110.749L77.8885 110.184ZM79.1514 118.442L75.5472 118.972L75.551 118.997L75.5552 119.023L79.1514 118.442ZM79.9771 123.882L76.3676 124.374L76.3739 124.421L76.3815 124.467L79.9771 123.882ZM80.4629 127.136L76.848 127.588L76.848 127.588L80.4629 127.136ZM80.7543 128.982L77.1922 129.745L77.8093 132.625H80.7543V128.982ZM80.9972 128.982V132.625H83.9115L84.5513 129.782L80.9972 128.982ZM81.8229 125.387L85.369 126.222L85.369 126.222L81.8229 125.387ZM82.6001 122.085L79.0719 121.177L79.0625 121.214L79.054 121.25L82.6001 122.085ZM83.4744 118.49L87.024 119.309L87.0263 119.3L87.0285 119.29L83.4744 118.49ZM85.9047 117.386C85.9037 117.387 85.9265 117.377 85.98 117.357C86.0323 117.337 86.1042 117.312 86.1987 117.281C86.3896 117.219 86.6431 117.146 86.9683 117.061L85.1292 110.011C84.3364 110.218 83.5397 110.458 82.8898 110.754L85.9047 117.386ZM87.0688 117.033C87.5284 116.899 87.9624 116.839 88.3802 116.839V109.553C87.2437 109.553 86.1234 109.719 85.0287 110.038L87.0688 117.033ZM88.3802 116.839C89.3908 116.839 89.9607 116.999 90.2462 117.131L93.3144 110.523C91.7866 109.814 90.0897 109.553 88.3802 109.553V116.839ZM90.3453 117.176C90.4432 117.218 90.361 117.201 90.2247 117.057C90.0712 116.895 89.9522 116.678 89.8976 116.459L96.966 114.692C96.4315 112.554 94.8992 111.2 93.2154 110.479L90.3453 117.176ZM89.9133 116.52C90.2648 117.83 90.5833 119.056 90.8691 120.199L97.9375 118.432C97.6403 117.244 97.3112 115.977 96.9503 114.632L89.9133 116.52ZM90.9005 120.317C91.2205 121.437 91.5242 122.524 91.8116 123.577L98.8407 121.66C98.5452 120.577 98.2336 119.462 97.9061 118.315L90.9005 120.317ZM91.8192 123.605C92.1012 124.607 92.3673 125.609 92.6177 126.611L99.6861 124.844C99.4184 123.773 99.134 122.703 98.833 121.632L91.8192 123.605ZM92.645 126.714C92.9189 127.688 93.1795 128.714 93.4263 129.794L100.529 128.17C100.258 126.983 99.9677 125.84 99.6588 124.741L92.645 126.714ZM96.9776 132.625H97.2205V125.339H96.9776V132.625ZM100.824 129.514C101.119 127.517 101.381 125.615 101.611 123.807L94.3838 122.887C94.1605 124.642 93.9048 126.496 93.6165 128.45L100.824 129.514ZM101.612 123.799C101.841 121.973 102.053 120.194 102.249 118.463L95.0093 117.643C94.8166 119.345 94.6078 121.095 94.3828 122.896L101.612 123.799ZM102.25 118.455C102.444 116.712 102.637 115 102.831 113.322L95.593 112.487C95.3981 114.176 95.2033 115.897 95.0084 117.651L102.25 118.455ZM102.832 113.314C103.026 111.595 103.221 109.86 103.416 108.109L96.1742 107.305C95.9801 109.051 95.7861 110.781 95.5921 112.494L102.832 113.314ZM101.593 110.875C102.25 110.502 102.911 110.33 103.632 110.33V103.044C101.633 103.044 99.7356 103.552 97.9967 104.539L101.593 110.875ZM103.632 110.33C104.295 110.33 104.665 110.469 104.884 110.598L108.598 104.33C107.068 103.423 105.366 103.044 103.632 103.044V110.33ZM104.884 110.598C104.827 110.565 104.747 110.506 104.663 110.417C104.578 110.327 104.512 110.229 104.466 110.138C104.375 109.955 104.409 109.895 104.409 110.087H111.695C111.695 107.887 110.828 105.651 108.598 104.33L104.884 110.598ZM104.409 110.087C104.409 110.576 104.35 111.422 104.193 112.706L111.426 113.588C111.593 112.217 111.695 111.023 111.695 110.087H104.409ZM104.184 112.785C104.064 113.993 103.88 115.378 103.629 116.943L110.824 118.094C111.091 116.422 111.296 114.892 111.434 113.51L104.184 112.785ZM103.619 117.014C103.4 118.579 103.132 120.23 102.817 121.967L109.985 123.27C110.317 121.446 110.6 119.697 110.834 118.024L103.619 117.014ZM102.817 121.967C102.5 123.708 102.169 125.364 101.823 126.936L108.939 128.502C109.305 126.835 109.654 125.091 109.985 123.27L102.817 121.967ZM101.823 126.936C101.481 128.49 101.129 129.881 100.767 131.116L107.76 133.162C108.176 131.742 108.568 130.186 108.939 128.502L101.823 126.936ZM100.751 131.173C100.415 132.394 100.135 133.186 99.9271 133.643L106.56 136.658C107 135.69 107.4 134.474 107.776 133.105L100.751 131.173ZM100.758 132.487C100.865 132.387 100.892 132.399 100.736 132.472C100.586 132.543 100.329 132.641 99.9312 132.746L101.796 139.789C103.116 139.44 104.595 138.873 105.729 137.814L100.758 132.487ZM99.9312 132.746C99.1416 132.955 98.3219 133.062 97.4633 133.062V140.348C98.9363 140.348 100.383 140.163 101.796 139.789L99.9312 132.746ZM97.4633 133.062C96.2312 133.062 95.3824 132.902 94.8225 132.698L92.3326 139.546C93.9098 140.119 95.6516 140.348 97.4633 140.348V133.062ZM94.9487 132.747C94.7201 132.654 94.7111 132.612 94.7977 132.692C94.8452 132.736 94.9161 132.812 94.9886 132.924C95.0623 133.038 95.1249 133.17 95.1683 133.313L88.1981 135.434C88.8659 137.628 90.6148 138.851 92.2064 139.497L94.9487 132.747ZM95.1478 133.247C94.7498 132.023 94.3131 130.544 93.8377 128.8L86.8086 130.718C87.3046 132.537 87.7746 134.133 88.2186 135.499L95.1478 133.247ZM93.8377 128.8C93.3573 127.039 92.8436 125.097 92.2966 122.973L85.241 124.79C85.795 126.941 86.3175 128.917 86.8086 130.718L93.8377 128.8ZM85.2075 123.115C84.7604 125.191 84.2976 127.217 83.8194 129.194L90.901 130.907C91.3942 128.868 91.8706 126.782 92.3301 124.649L85.2075 123.115ZM83.8194 129.194C83.3398 131.176 82.9134 132.833 82.5399 134.171L89.5576 136.13C89.9612 134.684 90.4092 132.94 90.901 130.907L83.8194 129.194ZM83.5631 132.487C83.6172 132.437 83.6096 132.46 83.48 132.526C83.3515 132.592 83.139 132.682 82.8162 132.778L84.9098 139.757C86.1612 139.382 87.48 138.798 88.5344 137.814L83.5631 132.487ZM82.8162 132.778C82.2306 132.954 81.5202 133.062 80.6572 133.062V140.348C82.1256 140.348 83.5524 140.164 84.9098 139.757L82.8162 132.778ZM80.6572 133.062C79.523 133.062 78.5813 132.911 77.7981 132.657L75.5503 139.587C77.1633 140.11 78.877 140.348 80.6572 140.348V133.062ZM77.9115 132.696C77.752 132.638 77.6373 132.586 77.559 132.545C77.4808 132.504 77.4471 132.479 77.4443 132.477C77.4425 132.476 77.4744 132.5 77.5217 132.556C77.5704 132.614 77.6272 132.696 77.6777 132.802L71.1048 135.945C72.0409 137.902 73.8158 138.963 75.4369 139.548L77.9115 132.696ZM77.6496 132.744C77.4879 132.421 77.2323 131.78 76.8952 130.707L69.9445 132.891C70.3197 134.085 70.7117 135.16 71.1329 136.003L77.6496 132.744ZM76.9299 130.824C76.6182 129.702 76.2878 128.428 75.9386 127L68.861 128.73C69.2242 130.215 69.5737 131.564 69.9098 132.774L76.9299 130.824ZM75.9428 127.017C75.5905 125.544 75.2214 123.956 74.8356 122.252L67.7296 123.86C68.1209 125.589 68.4967 127.206 68.8567 128.712L75.9428 127.017ZM74.8496 122.316C74.4978 120.621 74.1621 118.926 73.8424 117.232L66.6828 118.583C67.0107 120.321 67.355 122.059 67.7157 123.796L74.8496 122.316ZM73.8541 117.297C73.5645 115.592 73.2912 113.936 73.034 112.329L65.8396 113.48C66.1006 115.111 66.3778 116.79 66.671 118.517L73.8541 117.297ZM73.0358 112.34C72.7857 110.746 72.6017 109.314 72.4805 108.042L65.2274 108.732C65.3653 110.18 65.5698 111.76 65.8379 113.469L73.0358 112.34ZM71.3328 111.057C71.3904 111.003 71.6317 110.813 72.2155 110.556L69.2811 103.887C68.2458 104.342 67.2242 104.929 66.3751 105.717L71.3328 111.057ZM72.2155 110.556C72.5344 110.415 72.9056 110.33 73.3712 110.33V103.044C71.9587 103.044 70.5813 103.315 69.2811 103.887L72.2155 110.556ZM73.3712 110.33C74.0671 110.33 74.2733 110.483 74.2771 110.485L78.4884 104.54C76.9379 103.442 75.1364 103.044 73.3712 103.044V110.33ZM74.419 110.581C74.3632 110.545 74.3104 110.501 74.266 110.453C74.2223 110.407 74.1997 110.37 74.1928 110.358C74.1818 110.338 74.2415 110.436 74.2879 110.738L81.4891 109.63C81.191 107.693 80.3036 105.697 78.3465 104.444L74.419 110.581ZM74.2896 110.749C74.8067 114.045 75.2257 116.785 75.5472 118.972L82.7556 117.912C82.4295 115.694 82.0066 112.929 81.4875 109.62L74.2896 110.749ZM75.5552 119.023C75.9089 121.21 76.1789 122.991 76.3676 124.374L83.5867 123.389C83.3868 121.923 83.1063 120.077 82.7476 117.86L75.5552 119.023ZM76.3815 124.467C76.6057 125.844 76.7592 126.877 76.848 127.588L84.0777 126.684C83.9722 125.841 83.8019 124.704 83.5728 123.296L76.3815 124.467ZM76.848 127.588C76.9507 128.409 77.0631 129.143 77.1922 129.745L84.3164 128.219C84.2512 127.914 84.1693 127.417 84.0777 126.684L76.848 127.588ZM80.7543 132.625H80.9972V125.339H80.7543V132.625ZM84.5513 129.782C84.8405 128.496 85.1131 127.31 85.369 126.222L78.2768 124.553C78.0146 125.667 77.7367 126.877 77.4431 128.182L84.5513 129.782ZM85.369 126.222C85.6281 125.121 85.8871 124.02 86.1462 122.919L79.054 121.25C78.7949 122.351 78.5358 123.452 78.2768 124.553L85.369 126.222ZM86.1283 122.992C86.428 121.826 86.7265 120.599 87.024 119.309L79.9247 117.671C79.6394 118.907 79.3551 120.076 79.0719 121.177L86.1283 122.992ZM87.0285 119.29C87.3289 117.954 87.6435 116.447 87.9722 114.771L80.8224 113.369C80.5034 114.996 80.2027 116.435 79.9203 117.69L87.0285 119.29ZM118.763 136.316L117.591 139.765L117.632 139.779L117.673 139.792L118.763 136.316ZM114.489 133.888L112.064 136.606L112.082 136.622L112.1 136.638L114.489 133.888ZM111.623 129.856L108.264 131.267L108.276 131.295L108.289 131.323L111.623 129.856ZM111.623 118.684L108.311 117.167L108.304 117.182L108.297 117.198L111.623 118.684ZM114.392 114.896L116.763 117.662L116.785 117.642L116.807 117.623L114.392 114.896ZM118.278 112.71L119.36 116.188L119.395 116.178L119.43 116.166L118.278 112.71ZM127.409 112.759L126.139 116.173L126.152 116.178L126.164 116.182L127.409 112.759ZM131.052 114.896L128.61 117.599L128.632 117.618L128.653 117.637L131.052 114.896ZM133.432 118.15L130.093 119.606L130.108 119.641L130.125 119.677L133.432 118.15ZM133.384 124.805L130.878 122.16L130.878 122.16L133.384 124.805ZM130.809 125.922L130.279 122.318L130.27 122.319L130.809 125.922ZM118.812 127.719L118.272 124.116L113.985 124.758L115.356 128.871L118.812 127.719ZM120.998 130.148L119.368 133.406L119.407 133.425L119.446 133.444L120.998 130.148ZM128.526 130.439L129.501 133.949L129.533 133.94L129.565 133.931L128.526 130.439ZM131.441 129.225L133.372 126.135L131.466 124.945L129.547 126.113L131.441 129.225ZM132.752 130.585L135.861 128.685L135.861 128.685L132.752 130.585ZM131.246 135.685L129.556 132.458L129.547 132.463L129.537 132.468L131.246 135.685ZM127.749 136.802L127.209 133.199L127.209 133.199L127.749 136.802ZM120.706 118.393L119.227 115.064L119.191 115.08L119.155 115.097L120.706 118.393ZM119.346 119.413L122.032 121.875L122.08 121.821L122.127 121.766L119.346 119.413ZM118.52 120.773L115.109 119.494L115.086 119.557L115.064 119.621L118.52 120.773ZM118.229 122.279L114.593 122.052L114.308 126.612L118.818 125.874L118.229 122.279ZM126.535 120.919L127.124 124.514L130.671 123.933L130.138 120.378L126.535 120.919ZM125.466 118.976L128.107 116.467L128.107 116.467L125.466 118.976ZM124.106 133.451C122.528 133.451 121.118 133.237 119.854 132.84L117.673 139.792C119.712 140.432 121.864 140.736 124.106 140.736V133.451ZM119.936 132.867C118.741 132.461 117.734 131.881 116.878 131.137L112.1 136.638C113.704 138.031 115.547 139.071 117.591 139.765L119.936 132.867ZM116.914 131.169C116.143 130.482 115.481 129.58 114.958 128.389L108.289 131.323C109.19 133.371 110.438 135.157 112.064 136.606L116.914 131.169ZM114.982 128.445C114.528 127.365 114.246 125.969 114.246 124.173H106.96C106.96 126.717 107.358 129.109 108.264 131.267L114.982 128.445ZM114.246 124.173C114.246 122.409 114.528 121.113 114.949 120.171L108.297 117.198C107.358 119.3 106.96 121.663 106.96 124.173H114.246ZM114.935 120.202C115.459 119.058 116.084 118.244 116.763 117.662L112.021 112.13C110.433 113.491 109.212 115.203 108.311 117.167L114.935 120.202ZM116.807 117.623C117.551 116.964 118.391 116.49 119.36 116.188L117.195 109.231C115.25 109.837 113.499 110.82 111.976 112.169L116.807 117.623ZM119.43 116.166C120.519 115.803 121.62 115.624 122.746 115.624V108.338C120.829 108.338 118.951 108.646 117.126 109.254L119.43 116.166ZM122.746 115.624C124.095 115.624 125.211 115.827 126.139 116.173L128.68 109.344C126.823 108.653 124.83 108.338 122.746 108.338V115.624ZM126.164 116.182C127.201 116.559 127.995 117.043 128.61 117.599L133.494 112.192C132.102 110.935 130.467 109.994 128.654 109.335L126.164 116.182ZM128.653 117.637C129.285 118.19 129.757 118.835 130.093 119.606L136.772 116.694C136.007 114.939 134.892 113.415 133.451 112.154L128.653 117.637ZM130.125 119.677C130.471 120.428 130.664 121.278 130.664 122.279H137.95C137.95 120.3 137.559 118.398 136.74 116.624L130.125 119.677ZM130.664 122.279C130.664 122.497 130.632 122.545 130.654 122.486C130.666 122.454 130.689 122.402 130.73 122.338C130.771 122.274 130.822 122.213 130.878 122.16L135.889 127.449C137.431 125.988 137.95 124.066 137.95 122.279H130.664ZM130.878 122.16C130.954 122.088 130.869 122.231 130.279 122.318L131.339 129.526C132.952 129.289 134.582 128.687 135.889 127.449L130.878 122.16ZM130.27 122.319L118.272 124.116L119.352 131.322L131.349 129.525L130.27 122.319ZM115.356 128.871C116.047 130.946 117.492 132.468 119.368 133.406L122.627 126.889C122.431 126.792 122.355 126.715 122.333 126.691C122.316 126.671 122.293 126.643 122.268 126.567L115.356 128.871ZM119.446 133.444C121.109 134.226 122.916 134.568 124.786 134.568V127.282C123.807 127.282 123.088 127.105 122.549 126.851L119.446 133.444ZM124.786 134.568C126.412 134.568 127.989 134.369 129.501 133.949L127.551 126.929C126.732 127.156 125.816 127.282 124.786 127.282V134.568ZM129.565 133.931C130.945 133.521 132.234 133.006 133.335 132.337L129.547 126.113C129.158 126.35 128.504 126.645 127.488 126.947L129.565 133.931ZM129.51 132.314C129.51 132.314 129.512 132.315 129.515 132.318C129.518 132.32 129.525 132.326 129.535 132.336C129.554 132.356 129.593 132.401 129.644 132.484L135.861 128.685C135.245 127.677 134.423 126.793 133.372 126.135L129.51 132.314ZM129.644 132.484C129.654 132.502 129.659 132.511 129.659 132.512C129.659 132.512 129.657 132.507 129.654 132.496C129.651 132.486 129.648 132.473 129.646 132.46C129.644 132.446 129.644 132.436 129.644 132.431H136.93C136.93 131.075 136.546 129.807 135.861 128.685L129.644 132.484ZM129.644 132.431C129.644 132.511 129.634 132.532 129.64 132.512C129.642 132.503 129.648 132.486 129.657 132.465C129.666 132.444 129.677 132.423 129.69 132.402C129.703 132.382 129.715 132.366 129.724 132.356C129.733 132.345 129.736 132.343 129.731 132.347C129.721 132.356 129.671 132.398 129.556 132.458L132.937 138.912C134.074 138.316 135.118 137.461 135.863 136.272C136.615 135.073 136.93 133.747 136.93 132.431H129.644ZM129.537 132.468C128.906 132.803 128.143 133.059 127.209 133.199L128.29 140.405C129.946 140.156 131.515 139.668 132.956 138.902L129.537 132.468ZM127.209 133.199C126.066 133.371 125.033 133.451 124.106 133.451V140.736C125.446 140.736 126.842 140.622 128.29 140.405L127.209 133.199ZM122.746 114.361C121.568 114.361 120.365 114.558 119.227 115.064L122.186 121.722C122.213 121.71 122.37 121.647 122.746 121.647V114.361ZM119.155 115.097C118.181 115.555 117.292 116.2 116.565 117.06L122.127 121.766C122.124 121.77 122.125 121.767 122.139 121.757C122.154 121.746 122.19 121.721 122.257 121.689L119.155 115.097ZM116.661 116.951C115.974 117.701 115.459 118.561 115.109 119.494L121.931 122.052C121.97 121.949 122.006 121.902 122.032 121.875L116.661 116.951ZM115.064 119.621C114.801 120.41 114.645 121.223 114.593 122.052L121.865 122.506C121.878 122.298 121.916 122.107 121.976 121.925L115.064 119.621ZM118.818 125.874L127.124 124.514L125.946 117.324L117.64 118.684L118.818 125.874ZM130.138 120.378C129.896 118.766 129.054 117.464 128.107 116.467L122.825 121.485C122.892 121.555 122.936 121.609 122.965 121.647C122.993 121.685 123.004 121.704 123.003 121.703C123.002 121.701 122.99 121.679 122.975 121.636C122.96 121.593 122.943 121.533 122.932 121.459L130.138 120.378ZM128.107 116.467C126.594 114.873 124.589 114.361 122.746 114.361V121.647C123.026 121.647 123.122 121.686 123.1 121.678C123.086 121.673 123.045 121.657 122.99 121.622C122.934 121.586 122.877 121.539 122.825 121.485L128.107 116.467ZM138.378 104.695L137.332 101.206L134.735 101.985V104.695H138.378ZM139.933 104.404L140.425 108.014L140.505 108.003L140.584 107.988L139.933 104.404ZM144.013 104.355L143.38 107.943L143.397 107.946L143.414 107.949L144.013 104.355ZM145.47 104.938L143.284 107.853L143.284 107.853L145.47 104.938ZM146.344 106.153L142.933 107.432L142.947 107.469L142.962 107.506L146.344 106.153ZM146.636 112.856H142.993V118.236L147.989 116.238L146.636 112.856ZM148.919 112.176L148.294 108.587L148.281 108.589L148.267 108.591L148.919 112.176ZM155.767 112.807L157.107 109.419L157.107 109.419L155.767 112.807ZM159.459 115.236L156.883 117.812L156.903 117.832L156.923 117.851L159.459 115.236ZM161.985 119.122L158.597 120.462L158.597 120.462L161.985 119.122ZM161.936 130.05L158.563 128.674L158.556 128.692L158.549 128.71L161.936 130.05ZM159.313 133.936L156.855 131.248L156.855 131.248L159.313 133.936ZM155.136 136.316L156.246 139.786L156.267 139.779L156.288 139.772L155.136 136.316ZM144.304 136.316L145.501 132.876L145.467 132.864L145.434 132.853L144.304 136.316ZM140.516 134.471L142.642 131.512L142.628 131.502L142.614 131.493L140.516 134.471ZM153.193 129.079L150.366 126.782L150.357 126.792L153.193 129.079ZM153.193 119.947L155.984 117.606L155.984 117.606L153.193 119.947ZM148.093 118.636L147.154 115.116L147.123 115.124L147.092 115.133L148.093 118.636ZM146.587 119.219L145.036 115.922L142.944 116.907V119.219H146.587ZM146.587 129.808H142.944V131.807L144.631 132.881L146.587 129.808ZM147.85 130.39L146.698 133.846L146.831 133.891L146.966 133.925L147.85 130.39ZM139.425 108.185C139.415 108.188 139.487 108.167 139.681 108.13C139.864 108.096 140.109 108.057 140.425 108.014L139.44 100.794C138.701 100.895 137.944 101.022 137.332 101.206L139.425 108.185ZM140.584 107.988C141.076 107.899 141.586 107.853 142.118 107.853V100.567C141.161 100.567 140.214 100.65 139.281 100.82L140.584 107.988ZM142.118 107.853C142.673 107.853 143.086 107.891 143.38 107.943L144.646 100.768C143.839 100.625 142.988 100.567 142.118 100.567V107.853ZM143.414 107.949C143.48 107.96 143.49 107.968 143.461 107.956C143.43 107.944 143.365 107.913 143.284 107.853L147.656 102.024C146.71 101.314 145.647 100.935 144.612 100.762L143.414 107.949ZM143.284 107.853C143.175 107.771 143.088 107.678 143.024 107.589C142.962 107.503 142.937 107.442 142.933 107.432L149.755 104.874C149.352 103.798 148.675 102.788 147.656 102.024L143.284 107.853ZM142.962 107.506C142.932 107.431 142.943 107.431 142.96 107.543C142.977 107.652 142.993 107.831 142.993 108.096H150.279C150.279 107.049 150.161 105.885 149.727 104.8L142.962 107.506ZM142.993 108.096V112.856H150.279V108.096H142.993ZM147.989 116.238C148.616 115.987 149.141 115.838 149.57 115.76L148.267 108.591C147.272 108.772 146.275 109.077 145.283 109.473L147.989 116.238ZM149.543 115.765C150.052 115.676 150.651 115.624 151.347 115.624V108.338C150.295 108.338 149.274 108.416 148.294 108.587L149.543 115.765ZM151.347 115.624C152.461 115.624 153.478 115.819 154.428 116.195L157.107 109.419C155.272 108.694 153.342 108.338 151.347 108.338V115.624ZM154.428 116.195C155.353 116.56 156.163 117.092 156.883 117.812L162.035 112.66C160.617 111.242 158.967 110.155 157.107 109.419L154.428 116.195ZM156.923 117.851C157.577 118.486 158.149 119.329 158.597 120.462L165.372 117.781C164.59 115.805 163.478 114.058 161.995 112.62L156.923 117.851ZM158.597 120.462C159.011 121.507 159.265 122.834 159.265 124.513H166.551C166.551 122.112 166.189 119.845 165.372 117.781L158.597 120.462ZM159.265 124.513C159.265 126.25 158.997 127.611 158.563 128.674L165.309 131.427C166.171 129.316 166.551 126.985 166.551 124.513H159.265ZM158.549 128.71C158.119 129.796 157.545 130.617 156.855 131.248L161.771 136.625C163.348 135.184 164.523 133.413 165.323 131.391L158.549 128.71ZM156.855 131.248C156.146 131.896 155.216 132.45 153.984 132.86L156.288 139.772C158.359 139.082 160.214 138.049 161.771 136.625L156.855 131.248ZM154.026 132.847C152.818 133.233 151.402 133.451 149.744 133.451V140.736C152.037 140.736 154.216 140.436 156.246 139.786L154.026 132.847ZM149.744 133.451C147.88 133.451 146.496 133.222 145.501 132.876L143.107 139.757C145.091 140.447 147.335 140.736 149.744 140.736V133.451ZM145.434 132.853C144.222 132.458 143.314 131.995 142.642 131.512L138.389 137.429C139.79 138.435 141.407 139.203 143.175 139.78L145.434 132.853ZM142.614 131.493C142.046 131.093 142.021 130.857 142.021 130.585H134.735C134.735 133.486 136.135 135.841 138.417 137.449L142.614 131.493ZM142.021 130.585V104.695H134.735V130.585H142.021ZM149.744 134.228C152.144 134.228 154.416 133.366 156.029 131.366L150.357 126.792C150.328 126.829 150.309 126.844 150.302 126.849C150.296 126.854 150.286 126.861 150.266 126.87C150.229 126.886 150.08 126.942 149.744 126.942V134.228ZM156.02 131.376C157.598 129.434 158.099 126.953 158.099 124.513H150.813C150.813 126.088 150.472 126.651 150.366 126.782L156.02 131.376ZM158.099 124.513C158.099 122.07 157.61 119.545 155.984 117.606L150.402 122.288C150.46 122.357 150.813 122.876 150.813 124.513H158.099ZM155.984 117.606C154.384 115.699 152.188 114.799 149.793 114.799V122.085C150.073 122.085 150.199 122.132 150.236 122.149C150.266 122.162 150.317 122.188 150.402 122.288L155.984 117.606ZM149.793 114.799C148.914 114.799 148.019 114.885 147.154 115.116L149.032 122.156C149.138 122.127 149.376 122.085 149.793 122.085V114.799ZM147.092 115.133C146.405 115.329 145.716 115.603 145.036 115.922L148.138 122.515C148.559 122.317 148.874 122.201 149.094 122.139L147.092 115.133ZM142.944 119.219V129.808H150.23V119.219H142.944ZM144.631 132.881C145.285 133.297 145.987 133.61 146.698 133.846L149.002 126.934C148.741 126.848 148.601 126.771 148.543 126.734L144.631 132.881ZM146.966 133.925C147.862 134.149 148.809 134.228 149.744 134.228V126.942C149.19 126.942 148.874 126.891 148.734 126.856L146.966 133.925ZM176.015 126.796V123.153H172.372V126.796H176.015ZM176.015 136.122L176.973 139.637L179.658 138.905V136.122H176.015ZM174.315 136.413L173.863 132.799L173.853 132.8L173.843 132.801L174.315 136.413ZM170.089 136.365L170.879 132.809L170.801 132.791L170.722 132.777L170.089 136.365ZM168.68 135.782L166.373 138.602L166.433 138.65L166.494 138.696L168.68 135.782ZM167.854 134.568L164.443 135.847L164.443 135.847L167.854 134.568ZM168.097 108.096L170.673 110.672L170.673 110.672L168.097 108.096ZM169.652 107.173L170.855 110.611L170.864 110.608L169.652 107.173ZM173.489 106.347L173.891 109.968L173.931 109.963L173.97 109.958L173.489 106.347ZM188.255 108.873L185.931 111.678L185.931 111.678L188.255 108.873ZM190.101 121.647L193.047 123.79L193.047 123.79L190.101 121.647ZM186.409 124.95L184.665 121.752L181.006 123.748L183.473 127.107L186.409 124.95ZM189.858 129.419L192.683 127.119L192.683 127.119L189.858 129.419ZM192.529 133.208L196.032 134.208L196.454 132.733L195.692 131.4L192.529 133.208ZM190.732 135.831L192.806 138.826L192.817 138.818L192.829 138.81L190.732 135.831ZM186.021 136.462L187.107 132.985L187.107 132.985L186.021 136.462ZM184.661 135.782L186.846 132.868L184.661 135.782ZM183.592 134.713L180.705 136.935L180.705 136.935L183.592 134.713ZM182.669 133.353L185.793 131.479L185.778 131.454L185.762 131.429L182.669 133.353ZM178.589 126.796L181.682 124.871L180.613 123.153H178.589V126.796ZM181.989 119.413L184.37 122.17L184.405 122.14L184.44 122.109L181.989 119.413ZM181.843 113.827L179.511 116.626L179.574 116.678L179.639 116.728L181.843 113.827ZM175.966 113.05L175.314 109.466L172.323 110.01V113.05H175.966ZM175.966 120.336H172.323V123.979H175.966V120.336ZM172.372 126.796V136.122H179.658V126.796H172.372ZM175.056 132.607C174.965 132.632 174.614 132.705 173.863 132.799L174.766 140.028C175.569 139.928 176.352 139.806 176.973 139.637L175.056 132.607ZM173.843 132.801C173.254 132.878 172.666 132.916 172.08 132.916V140.202C172.984 140.202 173.886 140.143 174.786 140.026L173.843 132.801ZM172.08 132.916C171.539 132.916 171.148 132.868 170.879 132.809L169.299 139.921C170.195 140.12 171.132 140.202 172.08 140.202V132.916ZM170.722 132.777C170.682 132.77 170.684 132.767 170.717 132.78C170.751 132.794 170.805 132.822 170.866 132.868L166.494 138.696C167.405 139.379 168.427 139.771 169.456 139.952L170.722 132.777ZM170.987 132.963C171.097 133.052 171.172 133.143 171.219 133.211C171.264 133.277 171.274 133.311 171.265 133.289L164.443 135.847C164.818 136.845 165.428 137.828 166.373 138.602L170.987 132.963ZM171.265 133.289C171.28 133.327 171.262 133.293 171.242 133.154C171.223 133.018 171.206 132.813 171.206 132.528H163.92C163.92 133.602 164.038 134.764 164.443 135.847L171.265 133.289ZM171.206 132.528V109.65H163.92V132.528H171.206ZM171.206 109.65C171.206 109.62 171.211 109.734 171.142 109.936C171.067 110.154 170.92 110.424 170.673 110.672L165.521 105.52C164.27 106.771 163.92 108.351 163.92 109.65H171.206ZM170.673 110.672C170.591 110.754 170.599 110.701 170.855 110.611L168.448 103.734C167.409 104.098 166.381 104.66 165.521 105.52L170.673 110.672ZM170.864 110.608C171.646 110.332 172.643 110.106 173.891 109.968L173.087 102.726C171.42 102.911 169.859 103.236 168.439 103.737L170.864 110.608ZM173.97 109.958C175.25 109.787 176.642 109.698 178.152 109.698V102.413C176.359 102.413 174.642 102.518 173.007 102.736L173.97 109.958ZM178.152 109.698C182.193 109.698 184.581 110.56 185.931 111.678L190.579 106.068C187.395 103.429 183.048 102.413 178.152 102.413V109.698ZM185.931 111.678C187.281 112.797 188.012 114.268 188.012 116.499H195.298C195.298 112.318 193.762 108.705 190.579 106.068L185.931 111.678ZM188.012 116.499C188.012 117.848 187.676 118.787 187.155 119.505L193.047 123.79C194.598 121.658 195.298 119.164 195.298 116.499H188.012ZM187.155 119.505C186.408 120.531 185.576 121.255 184.665 121.752L188.154 128.148C190.092 127.091 191.721 125.613 193.047 123.79L187.155 119.505ZM183.473 127.107C184.671 128.738 185.858 130.275 187.033 131.719L192.683 127.119C191.591 125.778 190.479 124.336 189.345 122.793L183.473 127.107ZM187.033 131.719C188.083 133.01 188.847 134.105 189.366 135.015L195.692 131.4C194.917 130.043 193.899 128.613 192.683 127.119L187.033 131.719ZM189.027 132.207C188.907 132.627 188.758 132.765 188.636 132.851L192.829 138.81C194.455 137.665 195.505 136.055 196.032 134.208L189.027 132.207ZM188.659 132.835C188.453 132.977 188.228 133.062 187.866 133.062V140.348C189.642 140.348 191.327 139.85 192.806 138.826L188.659 132.835ZM187.866 133.062C187.414 133.062 187.184 133.009 187.107 132.985L184.934 139.939C185.894 140.239 186.894 140.348 187.866 140.348V133.062ZM187.107 132.985C186.939 132.932 186.867 132.883 186.846 132.868L182.475 138.696C183.232 139.264 184.066 139.668 184.934 139.939L187.107 132.985ZM186.846 132.868C186.745 132.792 186.621 132.676 186.48 132.492L180.705 136.935C181.211 137.593 181.799 138.189 182.475 138.696L186.846 132.868ZM186.48 132.492C186.247 132.189 186.017 131.853 185.793 131.479L179.545 135.228C179.904 135.826 180.29 136.396 180.705 136.935L186.48 132.492ZM185.762 131.429L181.682 124.871L175.496 128.721L179.576 135.278L185.762 131.429ZM178.589 123.153H176.015V130.439H178.589V123.153ZM179.075 123.979C180.906 123.979 182.815 123.513 184.37 122.17L179.608 116.656C179.656 116.615 179.68 116.615 179.626 116.632C179.561 116.653 179.392 116.693 179.075 116.693V123.979ZM184.44 122.109C186.11 120.59 186.701 118.549 186.701 116.596H179.415C179.415 116.866 179.375 116.955 179.384 116.931C179.39 116.917 179.405 116.883 179.435 116.838C179.466 116.792 179.502 116.751 179.539 116.717L184.44 122.109ZM186.701 116.596C186.701 114.494 185.957 112.378 184.048 110.927L179.639 116.728C179.606 116.702 179.561 116.661 179.515 116.604C179.47 116.546 179.438 116.489 179.418 116.444C179.379 116.354 179.415 116.376 179.415 116.596H186.701ZM184.176 111.029C182.422 109.567 180.129 109.213 178.103 109.213V116.499C178.748 116.499 179.166 116.561 179.41 116.625C179.65 116.687 179.632 116.726 179.511 116.626L184.176 111.029ZM178.103 109.213C177.558 109.213 177.018 109.23 176.535 109.284L177.34 116.525C177.44 116.514 177.677 116.499 178.103 116.499V109.213ZM176.535 109.284C176.144 109.327 175.735 109.389 175.314 109.466L176.618 116.634C176.91 116.581 177.149 116.546 177.34 116.525L176.535 109.284ZM172.323 113.05V120.336H179.609V113.05H172.323ZM175.966 123.979H179.075V116.693H175.966V123.979ZM195.09 113.681L192.017 115.637L193.091 117.324H195.09V113.681ZM194.459 112.224L190.985 113.321L190.985 113.321L194.459 112.224ZM194.993 107.561L192.492 104.913L192.454 104.948L192.417 104.985L194.993 107.561ZM218.405 106.736L221.479 104.78L220.405 103.093H218.405V106.736ZM219.037 108.193L222.511 107.096L222.511 107.096L219.037 108.193ZM218.454 112.856L215.953 110.207L215.915 110.243L215.878 110.28L218.454 112.856ZM210.877 113.681V110.038H207.234V113.681H210.877ZM210.877 136.122L211.835 139.637L214.52 138.905V136.122H210.877ZM209.177 136.413L208.725 132.799L208.715 132.8L208.705 132.801L209.177 136.413ZM204.951 136.365L205.741 132.809L205.663 132.791L205.584 132.777L204.951 136.365ZM203.542 135.782L205.728 132.868L203.542 135.782ZM202.668 134.568L199.257 135.847L199.257 135.847L202.668 134.568ZM202.376 113.681H206.019V110.038H202.376V113.681ZM198.164 111.726C198.176 111.744 198.152 111.71 198.105 111.602C198.059 111.495 198 111.34 197.933 111.127L190.985 113.321C191.23 114.098 191.556 114.912 192.017 115.637L198.164 111.726ZM197.933 111.127C197.857 110.886 197.811 110.609 197.811 110.281H190.525C190.525 111.313 190.673 112.332 190.985 113.321L197.933 111.127ZM197.811 110.281C197.811 110.096 197.821 109.957 197.833 109.859C197.846 109.761 197.859 109.716 197.86 109.712C197.861 109.709 197.8 109.906 197.569 110.137L192.417 104.985C190.863 106.54 190.525 108.627 190.525 110.281H197.811ZM197.495 110.21C197.468 110.235 197.431 110.265 197.385 110.293C197.339 110.322 197.293 110.344 197.252 110.359C197.167 110.39 197.145 110.378 197.228 110.378V103.093C195.522 103.093 193.841 103.639 192.492 104.913L197.495 110.21ZM197.228 110.378H218.405V103.093H197.228V110.378ZM215.332 108.691C215.32 108.673 215.343 108.706 215.391 108.815C215.437 108.922 215.496 109.077 215.563 109.29L222.511 107.096C222.266 106.319 221.94 105.505 221.479 104.78L215.332 108.691ZM215.563 109.29C215.639 109.531 215.685 109.808 215.685 110.136H222.971C222.971 109.104 222.823 108.085 222.511 107.096L215.563 109.29ZM215.685 110.136C215.685 110.313 215.675 110.443 215.663 110.531C215.651 110.619 215.64 110.654 215.642 110.648C215.644 110.641 215.662 110.585 215.713 110.502C215.764 110.416 215.842 110.311 215.953 110.207L220.955 115.504C222.594 113.956 222.971 111.837 222.971 110.136H215.685ZM215.878 110.28C215.969 110.189 216.088 110.112 216.207 110.067C216.316 110.026 216.353 110.038 216.268 110.038V117.324C217.969 117.324 219.684 116.778 221.03 115.432L215.878 110.28ZM216.268 110.038H210.877V117.324H216.268V110.038ZM207.234 113.681V136.122H214.52V113.681H207.234ZM209.918 132.607C209.827 132.632 209.476 132.705 208.725 132.799L209.628 140.028C210.431 139.928 211.214 139.806 211.835 139.637L209.918 132.607ZM208.705 132.801C208.116 132.878 207.528 132.916 206.942 132.916V140.202C207.846 140.202 208.748 140.143 209.648 140.026L208.705 132.801ZM206.942 132.916C206.401 132.916 206.01 132.868 205.741 132.809L204.161 139.921C205.057 140.12 205.994 140.202 206.942 140.202V132.916ZM205.584 132.777C205.544 132.77 205.546 132.767 205.579 132.78C205.613 132.794 205.667 132.822 205.728 132.868L201.356 138.696C202.267 139.379 203.289 139.771 204.318 139.952L205.584 132.777ZM205.728 132.868C205.837 132.949 205.925 133.042 205.989 133.131C206.051 133.217 206.075 133.278 206.079 133.289L199.257 135.847C199.66 136.923 200.337 137.932 201.356 138.696L205.728 132.868ZM206.079 133.289C206.093 133.327 206.075 133.293 206.056 133.154C206.036 133.018 206.019 132.813 206.019 132.528H198.733C198.733 133.602 198.851 134.764 199.257 135.847L206.079 133.289ZM206.019 132.528V113.681H198.733V132.528H206.019ZM202.376 110.038H195.09V117.324H202.376V110.038ZM231.437 115.09L234.183 117.485L234.183 117.485L231.437 115.09ZM231.632 128.059L229 130.578L229.014 130.593L229.028 130.607L231.632 128.059ZM240.958 129.808L239.666 126.401L239.646 126.409L239.626 126.417L240.958 129.808ZM243.629 128.593L245.945 125.781L244.056 124.226L241.902 125.386L243.629 128.593ZM244.892 130.245L241.57 131.74L241.616 131.842L241.668 131.941L244.892 130.245ZM243.143 135.831L245.068 138.924L245.077 138.918L245.086 138.912L243.143 135.831ZM230.32 136.268L229.204 139.735L229.204 139.735L230.32 136.268ZM225.317 133.451L222.867 136.146L222.884 136.162L222.901 136.177L225.317 133.451ZM221.917 128.593L218.546 129.975L218.56 130.008L218.574 130.042L221.917 128.593ZM221.869 114.896L218.506 113.495L218.5 113.509L218.494 113.523L221.869 114.896ZM225.123 109.99L222.609 107.353L222.593 107.368L222.578 107.383L225.123 109.99ZM229.98 106.978L228.721 103.56L228.721 103.56L229.98 106.978ZM242.803 107.416L240.929 110.539L240.943 110.547L240.956 110.556L242.803 107.416ZM244.649 113.341L241.643 111.284L241.643 111.284L244.649 113.341ZM243.192 114.799L241.198 117.848L243.182 119.144L245.171 117.857L243.192 114.799ZM240.472 113.39L239.079 116.756L239.099 116.764L239.119 116.772L240.472 113.39ZM237.169 109.164C233.891 109.164 230.87 110.199 228.692 112.695L234.183 117.485C234.66 116.938 235.46 116.45 237.169 116.45V109.164ZM228.692 112.695C226.599 115.095 225.803 118.219 225.803 121.55H233.089C233.089 119.312 233.621 118.129 234.183 117.485L228.692 112.695ZM225.803 121.55C225.803 124.982 226.7 128.175 229 130.578L234.263 125.54C233.649 124.899 233.089 123.753 233.089 121.55H225.803ZM229.028 130.607C231.32 132.949 234.314 133.985 237.606 133.985V126.699C235.911 126.699 234.922 126.213 234.235 125.511L229.028 130.607ZM237.606 133.985C239.235 133.985 240.835 133.77 242.29 133.198L239.626 126.417C239.267 126.558 238.633 126.699 237.606 126.699V133.985ZM242.25 133.214C243.331 132.804 244.367 132.333 245.356 131.801L241.902 125.386C241.207 125.76 240.463 126.099 239.666 126.401L242.25 133.214ZM241.313 131.405C241.433 131.504 241.509 131.605 241.57 131.74L248.214 128.75C247.692 127.589 246.926 126.589 245.945 125.781L241.313 131.405ZM241.668 131.941C241.669 131.943 241.684 131.971 241.7 132.043C241.717 132.117 241.735 132.242 241.735 132.431H249.021C249.021 131.121 248.767 129.786 248.116 128.548L241.668 131.941ZM241.735 132.431C241.735 132.417 241.738 132.38 241.751 132.335C241.765 132.29 241.779 132.269 241.775 132.276C241.76 132.298 241.631 132.478 241.201 132.749L245.086 138.912C247.247 137.55 249.021 135.407 249.021 132.431H241.735ZM241.219 132.738C240.628 133.105 239.22 133.548 236.44 133.548V140.834C239.684 140.834 242.744 140.37 245.068 138.924L241.219 132.738ZM236.44 133.548C234.619 133.548 232.959 133.29 231.437 132.8L229.204 139.735C231.503 140.476 233.922 140.834 236.44 140.834V133.548ZM231.437 132.8C229.98 132.331 228.761 131.635 227.734 130.724L222.901 136.177C224.723 137.792 226.84 138.974 229.204 139.735L231.437 132.8ZM227.768 130.755C226.762 129.841 225.917 128.661 225.26 127.145L218.574 130.042C219.601 132.411 221.023 134.47 222.867 136.146L227.768 130.755ZM225.288 127.212C224.7 125.777 224.346 123.921 224.346 121.55H217.06C217.06 124.619 217.515 127.459 218.546 129.975L225.288 127.212ZM224.346 121.55C224.346 119.392 224.678 117.657 225.243 116.268L218.494 113.523C217.505 115.955 217.06 118.656 217.06 121.55H224.346ZM225.231 116.297C225.872 114.758 226.695 113.547 227.668 112.597L222.578 107.383C220.831 109.089 219.484 111.148 218.506 113.495L225.231 116.297ZM227.637 112.626C228.661 111.65 229.85 110.909 231.24 110.397L228.721 103.56C226.419 104.408 224.37 105.674 222.609 107.353L227.637 112.626ZM231.24 110.397C232.655 109.875 234.201 109.601 235.906 109.601V102.315C233.402 102.315 230.997 102.721 228.721 103.56L231.24 110.397ZM235.906 109.601C238.572 109.601 240.114 110.05 240.929 110.539L244.678 104.292C242.255 102.838 239.198 102.315 235.906 102.315V109.601ZM240.956 110.556C241.435 110.837 241.591 111.04 241.624 111.091C241.639 111.114 241.638 111.117 241.635 111.107C241.632 111.097 241.638 111.109 241.638 111.156H248.924C248.924 107.998 247.081 105.705 244.65 104.276L240.956 110.556ZM241.638 111.156C241.638 111.272 241.623 111.321 241.623 111.322C241.622 111.324 241.624 111.319 241.628 111.309C241.633 111.3 241.638 111.291 241.643 111.284L247.656 115.399C248.544 114.101 248.924 112.633 248.924 111.156H241.638ZM241.643 111.284C241.457 111.555 241.306 111.68 241.213 111.74L245.171 117.857C246.179 117.205 246.999 116.358 247.656 115.399L241.643 111.284ZM245.186 111.75C244.134 111.062 243.011 110.482 241.825 110.008L239.119 116.772C239.875 117.075 240.566 117.434 241.198 117.848L245.186 111.75ZM241.865 110.024C240.391 109.414 238.798 109.164 237.169 109.164V116.45C238.066 116.45 238.675 116.589 239.079 116.756L241.865 110.024Z" fill="black"/>
<path d="M84.7879 114.139C85.1433 113.977 85.6927 113.799 86.436 113.605C87.2116 113.379 87.9872 113.266 88.7628 113.266C90.1201 113.266 91.2512 113.476 92.1561 113.896C93.0609 114.284 93.6103 114.866 93.8042 115.641C94.1597 116.966 94.4829 118.211 94.7737 119.374C95.0969 120.505 95.4039 121.604 95.6947 122.67C95.9856 123.704 96.2603 124.739 96.5188 125.773C96.8097 126.807 97.0844 127.889 97.3429 129.021H97.5853C97.8761 127.049 98.1346 125.175 98.3609 123.397C98.5871 121.588 98.7971 119.826 98.991 118.114C99.1849 116.369 99.3788 114.656 99.5727 112.975C99.7666 111.263 99.9605 109.534 100.154 107.788C101.35 107.11 102.627 106.771 103.984 106.771C105.18 106.771 106.214 107.029 107.086 107.546C107.959 108.063 108.395 108.936 108.395 110.164C108.395 110.875 108.314 111.893 108.153 113.218C108.024 114.51 107.83 115.965 107.571 117.58C107.345 119.196 107.07 120.893 106.747 122.67C106.424 124.448 106.085 126.144 105.729 127.76C105.374 129.376 105.002 130.846 104.614 132.171C104.259 133.464 103.919 134.466 103.596 135.177C103.111 135.629 102.32 136.001 101.221 136.292C100.122 136.583 98.991 136.728 97.8276 136.728C96.3088 136.728 95.0161 136.534 93.9496 136.146C92.9155 135.726 92.2853 135.145 92.0591 134.401C91.639 133.109 91.1866 131.574 90.7018 129.796C90.2171 128.019 89.7 126.064 89.1506 123.931C88.6982 126.031 88.2296 128.083 87.7448 130.087C87.2601 132.091 86.8238 133.787 86.436 135.177C85.9513 135.629 85.2241 136.001 84.2546 136.292C83.2851 136.583 82.2187 136.728 81.0553 136.728C79.601 136.728 78.276 136.534 77.0803 136.146C75.9169 135.726 75.1575 135.145 74.802 134.401C74.5111 133.82 74.188 132.963 73.8325 131.832C73.5093 130.669 73.17 129.36 72.8145 127.906C72.459 126.419 72.0874 124.819 71.6996 123.107C71.3441 121.394 71.0048 119.681 70.6816 117.968C70.3908 116.255 70.1161 114.591 69.8575 112.975C69.599 111.327 69.4051 109.824 69.2758 108.467C69.7283 108.047 70.3584 107.659 71.1664 107.304C71.9743 106.948 72.8468 106.771 73.784 106.771C75.0121 106.771 76.0139 107.045 76.7895 107.595C77.5974 108.112 78.0983 109 78.2922 110.261C78.8093 113.557 79.2294 116.304 79.5525 118.501C79.908 120.699 80.1827 122.509 80.3766 123.931C80.6028 125.32 80.7644 126.403 80.8614 127.178C80.9583 127.954 81.0553 128.568 81.1522 129.021H81.3946C81.6854 127.728 81.9601 126.532 82.2187 125.433C82.4772 124.335 82.7357 123.236 82.9943 122.137C83.2851 121.006 83.576 119.81 83.8668 118.55C84.1577 117.257 84.4647 115.787 84.7879 114.139ZM124.417 137.116C122.51 137.116 120.733 136.857 119.085 136.34C117.469 135.791 116.047 134.983 114.819 133.917C113.623 132.85 112.67 131.509 111.959 129.893C111.28 128.277 110.941 126.387 110.941 124.222C110.941 122.089 111.28 120.263 111.959 118.744C112.67 117.193 113.591 115.932 114.722 114.963C115.853 113.961 117.146 113.234 118.6 112.781C120.054 112.297 121.541 112.054 123.06 112.054C124.772 112.054 126.324 112.313 127.713 112.83C129.135 113.347 130.347 114.058 131.349 114.963C132.383 115.868 133.175 116.95 133.724 118.211C134.306 119.471 134.597 120.844 134.597 122.331C134.597 123.43 134.29 124.27 133.676 124.852C133.062 125.433 132.205 125.805 131.107 125.967L119.133 127.76C119.489 128.827 120.216 129.635 121.315 130.184C122.413 130.701 123.674 130.96 125.096 130.96C126.421 130.96 127.665 130.798 128.828 130.475C130.024 130.119 130.993 129.715 131.737 129.263C132.254 129.586 132.69 130.039 133.046 130.62C133.401 131.202 133.579 131.816 133.579 132.462C133.579 133.917 132.9 134.999 131.543 135.71C130.509 136.259 129.345 136.631 128.053 136.825C126.76 137.019 125.548 137.116 124.417 137.116ZM123.06 118.065C122.284 118.065 121.605 118.194 121.024 118.453C120.474 118.712 120.022 119.051 119.666 119.471C119.311 119.859 119.036 120.311 118.842 120.828C118.681 121.313 118.584 121.814 118.551 122.331L126.841 120.974C126.744 120.327 126.388 119.681 125.774 119.035C125.16 118.388 124.255 118.065 123.06 118.065ZM138.66 104.783C138.983 104.686 139.501 104.589 140.211 104.492C140.922 104.363 141.65 104.298 142.393 104.298C143.104 104.298 143.734 104.347 144.283 104.444C144.865 104.541 145.35 104.735 145.738 105.025C146.125 105.316 146.416 105.72 146.61 106.237C146.804 106.722 146.901 107.368 146.901 108.176V112.927C147.709 112.604 148.468 112.377 149.179 112.248C149.923 112.119 150.731 112.054 151.603 112.054C153.154 112.054 154.625 112.329 156.014 112.878C157.404 113.428 158.632 114.236 159.698 115.302C160.765 116.336 161.605 117.629 162.219 119.18C162.833 120.731 163.14 122.525 163.14 124.561C163.14 126.661 162.817 128.503 162.171 130.087C161.557 131.638 160.684 132.931 159.553 133.965C158.422 134.999 157.032 135.791 155.384 136.34C153.768 136.857 151.975 137.116 150.003 137.116C147.871 137.116 146.061 136.857 144.574 136.34C143.088 135.856 141.827 135.242 140.793 134.498C139.371 133.496 138.66 132.204 138.66 130.62V104.783ZM150.003 130.62C151.49 130.62 152.637 130.119 153.445 129.117C154.285 128.083 154.706 126.564 154.706 124.561C154.706 122.525 154.285 121.006 153.445 120.004C152.605 119.002 151.474 118.501 150.052 118.501C149.406 118.501 148.84 118.566 148.355 118.695C147.903 118.825 147.402 119.019 146.853 119.277V129.845C147.208 130.071 147.628 130.265 148.113 130.426C148.63 130.556 149.26 130.62 150.003 130.62ZM176.221 126.839V136.146C175.865 136.243 175.3 136.34 174.524 136.437C173.781 136.534 173.038 136.583 172.294 136.583C171.551 136.583 170.889 136.518 170.307 136.389C169.758 136.292 169.289 136.098 168.901 135.807C168.546 135.516 168.271 135.112 168.077 134.595C167.883 134.078 167.786 133.399 167.786 132.559V109.727C167.786 109.049 167.964 108.532 168.319 108.176C168.707 107.788 169.224 107.481 169.871 107.255C170.969 106.867 172.246 106.593 173.7 106.431C175.154 106.237 176.706 106.14 178.354 106.14C182.813 106.14 186.174 107.078 188.437 108.952C190.699 110.826 191.83 113.363 191.83 116.562C191.83 118.566 191.313 120.279 190.279 121.701C189.244 123.123 188.016 124.222 186.595 124.997C187.758 126.581 188.905 128.067 190.036 129.457C191.167 130.846 192.056 132.107 192.702 133.238C192.379 134.369 191.781 135.242 190.909 135.856C190.069 136.437 189.115 136.728 188.049 136.728C187.338 136.728 186.724 136.647 186.207 136.486C185.69 136.324 185.237 136.098 184.849 135.807C184.462 135.516 184.106 135.161 183.783 134.741C183.46 134.32 183.153 133.868 182.862 133.383L178.79 126.839H176.221ZM179.275 120.392C180.503 120.392 181.472 120.085 182.183 119.471C182.894 118.825 183.25 117.887 183.25 116.659C183.25 115.431 182.846 114.51 182.038 113.896C181.262 113.25 180.018 112.927 178.305 112.927C177.821 112.927 177.433 112.943 177.142 112.975C176.851 113.008 176.528 113.056 176.172 113.121V120.392H179.275ZM195.258 113.751C195.032 113.395 194.822 112.911 194.628 112.297C194.434 111.683 194.337 111.036 194.337 110.358C194.337 109.097 194.612 108.192 195.161 107.643C195.743 107.094 196.486 106.819 197.391 106.819H218.526C218.753 107.174 218.963 107.659 219.156 108.273C219.35 108.887 219.447 109.534 219.447 110.212C219.447 111.473 219.156 112.377 218.575 112.927C218.025 113.476 217.298 113.751 216.393 113.751H211.013V136.146C210.657 136.243 210.092 136.34 209.316 136.437C208.573 136.534 207.829 136.583 207.086 136.583C206.343 136.583 205.68 136.518 205.099 136.389C204.549 136.292 204.081 136.098 203.693 135.807C203.305 135.516 203.014 135.112 202.82 134.595C202.626 134.078 202.53 133.399 202.53 132.559V113.751H195.258ZM237.252 112.878C234.764 112.878 232.857 113.638 231.532 115.157C230.207 116.676 229.545 118.825 229.545 121.604C229.545 124.415 230.272 126.581 231.726 128.1C233.212 129.618 235.2 130.378 237.688 130.378C239.013 130.378 240.128 130.2 241.033 129.845C241.97 129.489 242.859 129.085 243.699 128.633C244.249 129.085 244.669 129.635 244.96 130.281C245.283 130.895 245.444 131.622 245.444 132.462C245.444 133.787 244.701 134.918 243.214 135.856C241.76 136.76 239.53 137.213 236.525 137.213C234.36 137.213 232.324 136.906 230.417 136.292C228.51 135.678 226.846 134.741 225.424 133.48C224.002 132.188 222.871 130.572 222.031 128.633C221.223 126.661 220.819 124.318 220.819 121.604C220.819 119.083 221.207 116.869 221.982 114.963C222.79 113.024 223.873 111.392 225.23 110.067C226.62 108.742 228.236 107.74 230.078 107.061C231.92 106.383 233.891 106.043 235.992 106.043C238.965 106.043 241.259 106.528 242.875 107.498C244.523 108.467 245.347 109.711 245.347 111.23C245.347 112.07 245.137 112.798 244.717 113.412C244.297 114.026 243.812 114.51 243.263 114.866C242.423 114.316 241.518 113.848 240.548 113.46C239.611 113.072 238.512 112.878 237.252 112.878Z" fill="white"/>
<path d="M158.794 71.6916C158.794 79.1481 152.75 85.193 145.293 85.193C137.836 85.193 131.792 79.1481 131.792 71.6916C131.792 64.2351 137.836 58.1902 145.293 58.1902C152.75 58.1902 158.794 64.2351 158.794 71.6916Z" fill="#FF6600"/>
<path d="M185.497 52.7891C185.497 60.2443 179.453 66.2905 171.997 66.2905C164.54 66.2905 158.495 60.2443 158.495 52.7891C158.495 45.3326 164.54 39.2865 171.997 39.2865C179.453 39.2865 185.497 45.3326 185.497 52.7891Z" fill="#FFCC00"/>
<path d="M152.495 52.4905C152.495 59.9461 146.451 65.9923 138.993 65.9923C131.538 65.9923 125.493 59.9461 125.493 52.4905C125.493 45.0342 131.538 38.9882 138.993 38.9882C146.451 38.9882 152.495 45.0342 152.495 52.4905Z" fill="#0089CC"/>
<path d="M179.496 71.6916C179.496 79.1481 173.452 85.193 165.994 85.193C158.538 85.193 152.493 79.1481 152.493 71.6916C152.493 64.2351 158.538 58.1902 165.994 58.1902C173.452 58.1902 179.496 64.2351 179.496 71.6916Z" fill="#009939"/>
<path d="M168.996 40.4888C168.996 47.9453 162.951 53.9902 155.494 53.9902C148.038 53.9902 141.993 47.9453 141.993 40.4888C141.993 33.0324 148.038 26.9873 155.494 26.9873C162.951 26.9873 168.996 33.0324 168.996 40.4888Z" fill="#BF0000"/>
<path d="M168.954 39.6437C168.971 39.9238 168.996 40.2029 168.996 40.487C168.996 46.8953 164.527 52.2496 158.538 53.6313C158.52 53.351 158.496 53.0729 158.496 52.789C158.496 46.3806 162.965 41.0264 168.954 39.6437Z" fill="#FC0007"/>
<path d="M165.996 58.1896C171.019 58.1896 175.392 60.9381 177.717 65.0056C175.978 65.8211 174.046 66.2902 171.999 66.2902C166.977 66.2902 162.605 63.542 160.278 59.4742C162.017 58.6586 163.95 58.1896 165.996 58.1896Z" fill="#1CD306"/>
<path d="M155.646 63.0298C157.61 65.3742 158.795 68.3929 158.795 71.6916C158.795 74.9903 157.61 78.0087 155.646 80.3535C153.68 78.0087 152.495 74.9903 152.495 71.6916C152.495 68.3929 153.68 65.3742 155.646 63.0298Z" fill="#0F7504"/>
<path d="M145.295 58.1909C147.194 58.1909 149 58.5865 150.64 59.2952C148.297 63.2968 143.965 65.9917 138.993 65.9917C137.092 65.9917 135.287 65.5948 133.647 64.886C135.99 60.8858 140.323 58.1909 145.295 58.1909Z" fill="#0C5E87"/>
<path d="M152.495 52.4896C152.495 52.8735 152.469 53.2516 152.438 53.6277C146.456 52.2401 141.994 46.8908 141.994 40.4874C141.994 40.1024 142.02 39.7244 142.052 39.3483C148.034 40.7349 152.495 46.0862 152.495 52.4896Z" fill="#6B0001"/>
<path d="M143.313 70.0195H141.201C139.336 70.0195 137.82 68.5085 137.82 66.6487V47.5317C137.82 45.672 139.336 44.1598 141.201 44.1598H167.684C169.549 44.1598 171.064 45.672 171.064 47.5317V66.6487C171.064 68.5085 169.549 70.0195 167.684 70.0195H158.662L140.561 78.8935L143.313 70.0195Z" fill="white"/>
<defs>
<linearGradient id="paint0_linear_7_40" x1="154.649" y1="5" x2="154.649" y2="154.649" gradientUnits="userSpaceOnUse">
<stop stop-color="#A56D22"/>
<stop offset="1" stop-color="#F9A83A"/>
</linearGradient>
</defs>
</svg>
